<?xml version="1.0" encoding="UTF-8" standalone="no"?>
<!-- Created with Inkscape (http://www.inkscape.org/) -->

<svg
   width="24.302397"
   height="29.112057"
   viewBox="0 0 6.430009 7.7025652"
   version="1.1"
   id="svg1334"
   sodipodi:docname="favicon.svg"
   inkscape:export-filename="../77d3e8da/favicon.png"
   inkscape:export-xdpi="1682.3804"
   inkscape:export-ydpi="1682.3804"
   inkscape:version="1.2.2 (732a01da63, 2022-12-09, custom)"
   xmlns:inkscape="http://www.inkscape.org/namespaces/inkscape"
   xmlns:sodipodi="http://sodipodi.sourceforge.net/DTD/sodipodi-0.dtd"
   xmlns="http://www.w3.org/2000/svg"
   xmlns:svg="http://www.w3.org/2000/svg">
  <sodipodi:namedview
     id="namedview160"
     pagecolor="#ffffff"
     bordercolor="#000000"
     borderopacity="0.25"
     inkscape:showpageshadow="2"
     inkscape:pageopacity="0.0"
     inkscape:pagecheckerboard="0"
     inkscape:deskcolor="#d1d1d1"
     showgrid="false"
     inkscape:zoom="39.885242"
     inkscape:cx="8.248665"
     inkscape:cy="13.70181"
     inkscape:window-width="1920"
     inkscape:window-height="2050"
     inkscape:window-x="20"
     inkscape:window-y="20"
     inkscape:window-maximized="0"
     inkscape:current-layer="svg1334" />
  <defs
     id="defs1331" />
  <g
     id="layer1"
     transform="translate(-1.121378,-0.61369812)">
    <g
       id="g1312"
       transform="matrix(0.09837248,0,0,-0.09837248,-13.821805,35.481017)">
      <g
         id="g57"
         transform="translate(205.4717,353.835)">
        <path
           d="m 0,0 c -21.078,-0.001 -38.217,-16.848 -38.691,-37.81 h 0.423 c 0.498,0 0.901,-0.404 0.901,-0.9 0,-0.497 -0.403,-0.9 -0.901,-0.9 h -0.421 c 0.483,-20.953 17.618,-37.788 38.689,-37.789 3.342,0 6.553,0.555 9.677,1.219 3.108,0.661 -2.027,1.112 -7.827,0.119 -2.038,-0.348 0.288,0.461 -1.85,0.461 -10.194,0 -19.413,4.129 -26.093,10.808 -6.678,6.681 -10.807,15.899 -10.807,26.093 0,10.192 4.129,19.41 10.807,26.092 C -19.413,-5.929 -10.194,-1.8 0,-1.8 M 0,0 3.026,-0.067 1.304,-1.216 h -1.722 -1.276 l 2.169,-0.063 1.977,0.255 -2.487,-0.957"
           style="fill:#b0b2b3;fill-opacity:1;fill-rule:nonzero;stroke:none"
           id="path59" />
      </g>
      <g
         id="g93"
         transform="translate(167.2041,316.0254)">
        <path
           d="M 0,0 H -0.424 -14.4 c -0.497,0 -0.9,-0.403 -0.9,-0.899 0,-0.497 0.403,-0.902 0.9,-0.902 H -0.422 0 c 0.498,0 0.9,0.405 0.9,0.902 C 0.9,-0.403 0.498,0 0,0"
           style="fill:#b0b2b3;fill-opacity:1;fill-rule:nonzero;stroke:none"
           id="path95" />
      </g>
      <g
         id="g121"
         transform="translate(215.918,278.8418)">
        <path
           d="m 0,0 c -10.07,0.001 -19.172,4.077 -25.775,10.676 -6.597,6.6 -10.675,15.704 -10.675,25.773 0,10.071 4.078,19.173 10.675,25.775 6.603,6.597 15.705,10.674 25.775,10.675 0.745,0 1.35,0.606 1.35,1.351 C 1.35,74.994 0.745,75.6 0,75.6 -21.623,75.599 -39.148,58.071 -39.15,36.449 -39.148,14.827 -21.623,-2.699 0,-2.7 c 0.745,0 1.35,0.604 1.35,1.349 C 1.35,-0.605 0.745,0 0,0"
           style="fill:#b20005;fill-opacity:1;fill-rule:nonzero;stroke:none"
           id="path123" />
      </g>
      <g
         id="g125"
         transform="translate(188.918,313.9414)">
        <path
           d="m 0,0 h 21.6 c 0.745,0 1.35,0.605 1.35,1.35 0,0.745 -0.605,1.35 -1.35,1.35 H 0 C -0.745,2.7 -1.35,2.095 -1.35,1.35 -1.35,0.605 -0.745,0 0,0"
           style="fill:#b20005;fill-opacity:1;fill-rule:nonzero;stroke:none"
           id="path127" />
      </g>
    </g>
  </g>
</svg>
