<svg xmlns="http://www.w3.org/2000/svg" height="69.787" viewBox="0 0 256.36249 69.787498" width="256.36"><g fill="#AAA"><path d="M0 34.89c0 19.244 15.656 34.898 34.9 34.898 19.243 0 34.896-15.654 34.896-34.898C69.796 15.65 54.143-.005 34.9-.005 15.656-.005 0 15.65 0 34.89zm.978 0C.978 16.187 16.194.97 34.899.97c18.703 0 33.919 15.217 33.919 33.92.001 18.707-15.215 33.924-33.917 33.924C16.194 68.814.978 53.597.978 34.89"/><path d="M44.579 55.88c-.848 2.936-1.253 4.452.071 7.48.013.114.141.488 0 .54-1.462-.294-1.85-.418-3.223-.52-1.269-.22-3.377.131-4.787.119-1.102.037-2.22.076-3.373.217-.346-.18-.077-.564-.052-.82.129-.4.14-.605.18-1.064.18-.193.4-.09.615-.181.743-.115 1.373-.77 1.553-1.464.231-.726-.025-1.537-.359-2.233-.066-.205-.347-.356-.23-.559.91-1.708.268-3.44-.038-5.107-.322-1.182-.81-2.485-1.003-3.733.04-.127-.128-.422.154-.447l.103.025c.974 1.179 3.764 3.676 4.812 4.49 1.043.81 3.742 2.385 5.5 2.81.165.139.14.253.077.446zm-12.985 3.027c0-.154.01-.215.127-.266h.634c.56.017 1.286.205 1.813-.342.304.012.33.37.41.65.073.39.055.636.055.983-.126.277-.267.7-.554.876-.456.213-.914.171-1.35 0-.66-.393-1.143-1.018-1.135-1.901zm1.08 3.237c-.082.766-1.042 1.44-1.513 1.575-.47.136-1.879.07-2.282-.071-.403-.137-1.39-2.068-1.277-3.071 0-.826.223-2.139.553-2.243.333-.104 1.212-.05 1.212-.05.366-.024.645.061.967.1.23.088.068.376.149.54.103.427.128.888.393 1.316.37.715 1.047 1.14 1.717 1.391.15.138.066.325.08.513zm-5.477 1.326c-.262.268-.408.141-.673.168-.755-.207-1.2-.535-1.414-1.387a8.548 8.548 0 0 1 0-3.72l.121-.096c.53-.058 1.334-.168 1.55-.048.22.122-.234 2.263-.234 2.263-.012.425.194 1.514.388 2.078.04.083.476.52.262.742zm8.93-25.43l-.027.732c-.065.665-.376 1.433-1.002 1.807-.374-.088-.242-.54-.333-.848.24-.666.707-1.216 1.095-1.806.05-.04.106-.064.16-.04l.107.155zm5.442-5.904c-.388.18-.788.22-1.22.02-.11-.147-.464-.269-.322-.488.312-.506.839-.923 1.164-1.419l.151-.078c.655-.796 1.694-1.462 2.676-2.058l.594-.259c.127-.128.431-.398.55-.12a3.473 3.473 0 0 1-1.403 2.872c-.598.444-.853.356-1.39.388l-.273.497c-.066.248-.28.497-.527.645zm-2.133 9.756c-.179.108-1.73-.483-1.548-.32-.37-.398.231-.532-1.135-1.045l-.333.032c-.041.042-.162.103-.285-.068-.013-.205.258-.175.344-.43.489-1.101.22-1.958.172-3.098l.362-.938c.685-.827.685-.944 1.15-1.394.465-.656.563-.703 1.187-1.242.102-.088.289-.156.413-.054.293.23.308.38.395.674.147 1.091-.512 1.838-1.308 2.427-.566.488-1.104 1.245-.981 1.99l.048.05c.26-.218.583-.344.693-.615.428-.96 1.588-1.397 2.237-2.231.281-.5.107-1.367 0-1.943-.003.014.849-.403.618-.254.404.166.356.459.55.827.382.965.349 1.831-.238 2.666l-1.619 2.017c-.024 1.028.257 2.349-.722 2.95zm6.846-15.344l.112-.14c.502-.24.969-.424 1.528-.585l.667-.175c.176-.16.49-.291.67-.061.01.864-.637 1.904-1.594 2.302-.302.132-.703.173-1.06.262-.089-.077-.38.087-.467-.13.055-.435.221-1.084.144-1.473zm6.445-1.618c-.032.622-.861 1.135-1.556 1.33-.297.044-.568.027-.831.027-.066-.049-.147-.105-.136-.172.044-.294.092-.468.114-.734l.172-.124c.611-.125 1.362-.259 1.978-.422.09.019.203.012.26.095zM32.944 37.366c1.796-3.218 3.976-6.016 6.312-8.89l3.272-3.715c2.332-2.49 4.91-5.041 7.77-7.017.36-.207.517-.625.887-.33l.337.309c.227.256.029.983-.202 1.188-.183.152-.362.298-.542.445.557.554 1.362 1.604 2.025 2.284.29.299.202.609.72.85.26.123.334.406.18.65-.462.588-1.23.5-1.834.653-2.244.5-4.058 1.141-6.54 2.347-1.989 1.053-3.578 2.217-5.017 4.026-.55.682-1.166 1.194-1.626 2.015-1.309 1.682-2.347 3.259-3.387 4.987-.372.547-.495.818-1.015 1.311-.253.24-.477-.261-.635-.434-.018-.02-.03-.043-.042-.064a.228.228 0 0 1-.162-.038c-.14-.179-.578-.257-.501-.577zm20.812-12.012c-.07.074-.161.169-.282.137-.271-.19-.169-.432-.15-.662.055-.054.064-.085.15-.085.13-.022.201.073.251.14.078.148.09.317.031.47zm-30.14 36.893c-.524.012-.894-.274-1.14-.896-.245-.789-.327-1.485-.157-2.298.055-.1.17-.168.245-.134l.732-.249c.25-.1.45-.132.685-.078l.148.146c-.011.43-.118.745-.129 1.14-.041.992-.125 1.29.161 2.234-.106.252-.318.132-.545.135zm-2.187-2.771c-.117.207-.1.344-.153.593-.062.112-.382-.042-.484-.105-.399-.215-.37-.106-.487-.474-.063-.249-.056-.537.354-.754.257-.144.77-.32.936 0 .05.217-.207.493-.167.74zM58.094 38.33c-.924-2.132-1.963-3.965-2.721-6.106-.539-.77-.228-1.592-.293-2.412-.348-1.282-.886-2.27-1.399-3.516-.14-.356.257-.461.398-.715.232-.63.066-1.336-.219-1.936-.113-.35.297-.593.219-.95-.014-.552-.5-.925-.885-1.218-.579-.835-.846-1.272-1.564-2.03v-.138c.358-.321.655-.872.641-1.348-.14-.54-.256-1.037-.77-1.411-.82-.461-1.654.256-2.307.629-.182.125-.271.257-.527.23-.168-.056-.337-.12-.513-.18-.168.19-.376.39-.63.593l.796.322c.03.022.04.04.04.066 0 .015-.005.04-.008.061l-1.845 1.616c-.005.003-3.226 3.186-3.226 3.186l-.923.938-2.864 3.298c-1.498 1.739-3.707 4.585-5.039 6.67-.69.955-1.38 2.014-2.025 3.013-.07.112-.201.102-.407.078-.143-.015-.29-.03-.418.015h.004l-.029.007c.007 0 .017 0 .025-.007-.728.082-1.256.324-1.823.835a4.62 4.62 0 0 0-1.106 3.047c0 .776.179 1.596.535 2.419-.151.437-.496.829-.806 1.175l-.173.191-.22.214c-.142.14-.307.294-.425.445l-.011.012-.007.02c-.014.049-.021.139.122.207l.033.017.037-.007c.677-.161 1.104-.671 1.518-1.165 0 0 .261-.297.298-.342.06-.014.112.023.201.098a.74.74 0 0 0 .161.105v.034l-.01.269c-1.605 1.582-2.912 2.48-4.619 3.484l-.285.163.33.037c.666.066 1.298-.31 1.91-.669l.733-.408c.681-.346 1.311-.879 1.922-1.391 0 0 .55-.457.612-.507.056.009.12.082.169.143l.06.064c.012.019.514 1.01.544 1.074-.117.47-.165.94-.165 1.413 0 1.026.22 2.046.44 3.047.216.989.438 2.005.438 3.006 0 .063-.002.13-.004.197 0 .308-.339.718-.62.847-.642.11-1.416.118-2.236.125-1.006.007-2.047.016-2.845.232a6.052 6.052 0 0 0-.846.198c-.285.078-.575.158-.849.197l-.025.005-.03.022-.1.066c-.091.061-.203.13-.233.264l-.001.036a.32.32 0 0 0 .093.22.242.242 0 0 0 .197.078c.242 0 .513-.1.776-.195.183-.066.374-.134.55-.169 1.67-.283 3.503-.224 4.743-.124.61-.01 1.618-.03 1.98-.9.131-.353.176-.68.176-.997 0-.347-.054-.682-.11-1.025l-.11-.845c-.073-.518-.183-1.033-.289-1.53-.186-.887-.38-1.795-.38-2.718 0-.188.01-.374.027-.564.017-.022.037-.051.06-.056.055-.008.15.07.224.13.088.065.175.131.27.155a.685.685 0 0 0 .352.123c.16.021.246.043.297.163.072.812.352 1.65.623 2.459.185.557.38 1.135.501 1.699.222.984.444 1.985.444 2.969 0 .588-.079 1.171-.286 1.74-.429.784-1.364.785-2.27.786h-.272l-2.219-.131c-1.902-.139-3.871-.278-5.889.047a82.71 82.71 0 0 0-.452.046c-.249.04-.483.071-.734.01a.448.448 0 0 1-.17-.34.37.37 0 0 1 .024-.131c.362-.796.542-1.516.542-2.152 0-.514-.12-.976-.356-1.383-.52-.999-1.095-1.692-1.802-2.176a53.286 53.286 0 0 1-2.266-2.382c-.385-.052-.623-.13-.646-.137l-.088-.03-.385.476c.5.475.962.95 1.528 1.463.857.463 1.552 1.296 2.166 1.86.745.872.923 1.794.77 2.822-.103 1.216-1.218 1.743-1.976 2.554-.305.576-.5 1.267-.077 1.807.27.715 1.425.588 1.566 1.179.316 1.301 2.576 2.055 3.017 2.087.44.03.895.515.895.515.897.654 2.077.498 2.698.4.616-.092 1.726.408 2.418.306 1.04-.41 1.886-.22 2.963-.308 3.387.052 7.235-.024 10.695.41.642-.075 1.411.424 2.016.118.154-.258.037-.476 0-.694-1.653-2.602-1.904-5.525-.964-8.36l.626.037c2.245.242 4.288-.05 6.567-1.37 1.143-.629 1.743-2.096 1.692-3.163-.038-.691-.278-1.509-.162-2.241.041-.325.256-.82.538-.977.119-.066.54-.352.671-.718.219-.593-.249-.871-.38-.954.362-.15.712-.889.377-1.468-.213-.227-.462-1.128-.489-1.423-.075-.422-.09-.857.31-1.128.896-.474 1.742-.59 2.679-1 .642-.27.974-.938.95-1.539l-.385-1.306zm-.269 2.236c-.95.885-2.295.899-3.386 1.616-.501.5-.374 1.067-.168 1.697.402.798.25.715-.313.903-1.317.44-1.302 1.877-2.884 1.636-.09.027-.46-.156-.242.108.172.202.242.08.579.12.564.026.772-.206 1.168-.477.564-.471.498-.652 1.193-.984.164-.041.574-.16.803-.08.154.14.157.141.183.27-.09.389-.652.706-.868.843.297.215.85.581.761.889-.128.202-.12.234-.344.343-.315.152-.94.13-1.53-.31-.089.03-.187-.173-.44.067.575.593 1.38.456 1.5.578.121.12-.428.835-.454.99-.387 1.025.088 1.97-.12 3.034-.128.832-.377 1.228-1.105 1.755-1.337.925-2.276 1.194-3.78 1.436-3.937.266-6.42-1.082-9.257-3.201-2.835-2.117-3.919-3.245-4.805-4.436-.012-.486.347-.857.04-1.385-.256.089-.232.423-.386.616-.218.308-.743.54-1.116.503-1.167-.4-1.231-1.773-1.962-2.555-1.564-1.54-2-3.759-1.166-5.617.294-.578.82-1.13 1.411-1.333.729-.117 1.59-.117 2.066.589.562.537.908 1.41 1.05 2.18.23.374-.05.796.332 1.104.667.06 1.243.229 1.884-.181.476.063.542.59.901.82l.64.386c.678.28 1.553.28 2.131-.22 1.078-1.103.842-2.236 1.214-3.454 1.025-.909 1.71-2.212 1.695-3.482-.064-.784-.344-1.59-.81-2.373.077-.461.336-.81.491-1.22.128-.076.293-.076.435-.1 1.143-.245 2.18-1.285 2.63-2.376l.102-.098c1.309-.093 2.937-.554 3.692-1.926.157-.591.82-.154 1.233-.293.69-.042 1.385-.425 1.912-.877.151-.05.268.118.359.193.305 1.028.871 2.017 1.191 3.055.4.78.541 1.525.4 2.321.164 1.219.857 2.361 1.343 3.592.491 1.296 1.245 2.602 1.797 3.935.104.54.335.965 0 1.399"/><path d="M51.991 30.347c.18.23.297.434.154.651-.333.025-.386-.395-.666-.539-.462-.23-.872.015-1.333.13-1.169.5-2.143 1.5-3.271 2.023-.14 0-.271-.01-.359-.112.193-.193.5-.232.744-.386 1.164-.769 2.296-1.972 3.757-2.192.384-.027.731.112.974.425M50.87 34.598c-.18.268-.469.034-.722.066-.574-.066-1.55.068-2.187-.01-.095-.056-.167-.154-.109-.247.098-.156.363-.168.531-.29.696-.435 1.428-.852 2.223-1.04.145-.02.264.1.29.2.095.369.035.962-.026 1.321zm1.031-2.278c-.09-.283-.076-.742-.423-.808-.077.178 0 .373-.077.54-.103.126-.282.28-.487.229-1.414.09-2.465 1.336-3.667 1.978-.41.23-.874.359-1.31.47-.038.067-.023.155.036.194 1.337.141 2.656.27 3.977.412l1.477-.168c.04-.19-.192-.36-.154-.577.167-.601.218-1.257.051-1.82.116-.306.552-.079.577-.45M52.646 38.933c.048-.067.102-.143.165-.15.084.031.128.07.14.224-.012.248-.074.51-.14.784-.077.315-.155.635-.155.95 0 .139.015.278.053.412.186.232.472.283.816.166.006-.005.583-.334.583-.334.501-.3.977-.586 1.856-.808.022-.005.028.001.032.002.012.02.02.051.02.093a.71.71 0 0 1-.06.261c-.033.017-.845.378-.845.378-.641.279-1.304.57-1.924.928-.182.037-.354-.063-.516-.16l-.04-.023a1.528 1.528 0 0 1-.312-.95c0-.28.06-.559.125-.85.058-.265.114-.544.131-.837l.071-.086M32.665 38.67c.461.95-.028 1.845 0 2.834.077.28.627.32.461.653-.128.088-.31.114-.449.013-.256-.167-.348-.294-.411-.587-.065-.876.63-1.889.012-2.708-.18-.18-.436-.36-.692-.373-.55.102-.833.693-1.025 1.128-.295 1.155-.371 2.373.64 3.296.59.344 1.308.718 1.348 1.464.088.13.267.255.41.176.18-.01.205-.522.461-.279l.077.18c-.063.202-.128.566-.46.576-.166.036-.349-.052-.488-.154-.36-.369-.077-.933-.681-1.18-1-.308-1.656-1.36-1.758-2.346-.062-.95-.023-1.99.798-2.82.319-.246.744-.401 1.154-.27.23.036.5.205.603.397"/><g fill-rule="evenodd"><path d="M20.306 46c1.333-.62 2.857-.549 3.431-.494-.164.53-.717 1.902-2.233 2.647-1.524.747-2.825.566-3.304.464.176-.528.766-1.995 2.106-2.618zm-.18-.394c-1.827.847-2.383 3.023-2.41 3.113l-.046.193.189.063c.07.025 1.766.579 3.835-.434 2.086-1.025 2.515-3.09 2.53-3.177l.045-.22-.22-.036c-.088-.015-2.131-.337-3.923.498M22.123 41.9c1.329-.6 2.778-.522 3.335-.463-.171.515-.74 1.83-2.253 2.556-1.507.72-2.804.58-3.298.49.211-.54.879-1.98 2.216-2.583zm-.177-.396c-1.83.828-2.505 2.981-2.533 3.074l-.063.207.205.06c.072.026 1.762.529 3.837-.465 2.096-1.003 2.539-2.995 2.557-3.08l.044-.22-.217-.04c-.083-.014-2.032-.349-3.83.464"/><path d="M24.496 37.952c1.322-.581 2.699-.498 3.24-.435a4.364 4.364 0 0 1-2.273 2.464c-1.49.693-2.776.598-3.292.519.249-.549.988-1.962 2.325-2.548zm-.173-.396c-1.834.805-2.626 2.937-2.658 3.03l-.081.22.225.061c.071.021 1.757.474 3.837-.498 2.102-.977 2.564-2.902 2.584-2.984l.05-.217-.22-.044c-.077-.014-1.928-.361-3.737.432M26.852 34.055c1.319-.564 2.623-.477 3.143-.412a4.344 4.344 0 0 1-2.289 2.375c-1.479.67-2.753.613-3.287.542.285-.554 1.104-1.936 2.434-2.505zm-.17-.398c-1.835.786-2.743 2.898-2.784 2.984l-.096.234.245.061c.07.019 1.75.423 3.838-.524 2.111-.958 2.587-2.813 2.608-2.891l.055-.215-.22-.049c-.072-.016-1.826-.376-3.646.4M30.114 30.157c1.313-.547 2.545-.457 3.047-.388-.195.478-.799 1.62-2.305 2.286-1.471.65-2.732.621-3.28.568.33-.567 1.215-1.917 2.538-2.466zm-.163-.402c-1.841.763-2.866 2.858-2.907 2.944l-.121.248.267.059c.07.014 1.748.366 3.84-.554 2.12-.938 2.613-2.72 2.632-2.798l.058-.215-.216-.051c-.069-.015-1.727-.391-3.553.367"/><path d="M33.712 26.392a5.77 5.77 0 0 1 2.95-.364c-.203.466-.82 1.558-2.326 2.2-1.458.626-2.704.632-3.267.59.37-.573 1.325-1.897 2.643-2.426zm-.16-.4c-1.841.74-2.985 2.817-3.033 2.902l-.139.261.29.057c.07.01 1.742.314 3.837-.586 2.129-.914 2.64-2.63 2.66-2.7l.061-.215-.215-.056c-.066-.015-1.626-.404-3.462.336"/><path d="M37.554 22.835c1.293-.506 2.389-.412 2.854-.336-.214.451-.844 1.485-2.345 2.114-1.436.595-2.673.635-3.254.61.413-.586 1.435-1.875 2.745-2.388zm-.158-.402c-1.844.722-3.104 2.775-3.155 2.863l-.166.276.316.05c.07.009 1.738.265 3.838-.614 2.139-.89 2.662-2.534 2.684-2.605l.066-.212-.212-.059c-.06-.017-1.524-.424-3.37.3"/><path d="M41.55 19.55c1.28-.485 2.311-.388 2.754-.312-.22.437-.864 1.419-2.359 2.026-1.424.573-2.647.643-3.24.632.457-.59 1.541-1.852 2.845-2.346zm-.154-.402c-1.849.703-3.222 2.734-3.281 2.822l-.194.29.348.044c.07.01 1.732.213 3.838-.642 2.146-.871 2.688-2.441 2.71-2.512l.068-.205-.208-.066c-.058-.017-1.428-.434-3.28.269"/><path d="M45.607 16.61c1.268-.465 2.237-.37 2.662-.289-.235.42-.889 1.35-2.38 1.936a9.182 9.182 0 0 1-3.219.654c.499-.595 1.641-1.823 2.937-2.302zm-.15-.406c-1.85.684-3.34 2.7-3.402 2.785l-.22.305.374.038c.068.006 1.727.16 3.838-.673 2.156-.844 2.712-2.346 2.736-2.412l.073-.205-.205-.07c-.053-.023-1.326-.455-3.194.231M16.179 45.4c0-.065 0-.131.005-.197.095-1.482.897-2.79 1.221-3.264.375.385 1.265 1.47 1.265 3.064 0 .06 0 .124-.004.185-.074 1.704-.86 2.769-1.183 3.14-.363-.393-1.304-1.536-1.304-2.928zm1.026-3.925c-.055.07-1.323 1.718-1.453 3.698-.132 2.02 1.519 3.56 1.591 3.626l.144.137.147-.137c.057-.051 1.364-1.275 1.463-3.591.104-2.334-1.515-3.706-1.584-3.765l-.172-.144-.136.176"/><path d="M18.534 41.004a4.194 4.194 0 0 1 .146-1.033c.318-1.171.97-2.087 1.266-2.46.309.37.985 1.328.985 2.695a4.8 4.8 0 0 1-.031.5c-.198 1.638-1.013 2.657-1.355 3.018-.305-.403-1.011-1.465-1.011-2.72zm1.245-3.968a7.482 7.482 0 0 0-1.516 2.82 4.927 4.927 0 0 0-.133.709c-.238 1.955 1.175 3.56 1.235 3.628l.142.158.158-.139c.058-.049 1.392-1.206 1.663-3.454.273-2.272-1.18-3.677-1.239-3.733l-.16-.152-.15.163"/><path d="M21.185 36.927c0-.2.018-.413.057-.623a4.22 4.22 0 0 1 .156-.618 6.667 6.667 0 0 1 1.397-2.329 4.08 4.08 0 0 1 .65 3.145c-.317 1.572-1.161 2.539-1.527 2.898-.24-.408-.733-1.37-.733-2.473zm1.483-4.058c-.046.043-1.127 1.053-1.68 2.678-.07.206-.125.432-.172.68-.344 1.893.835 3.56.883 3.635l.132.18.178-.139c.057-.046 1.421-1.135 1.86-3.315.445-2.21-.84-3.645-.895-3.705l-.147-.161-.157.147"/><path d="M24.104 33.182c0-.298.032-.607.106-.914a4.11 4.11 0 0 1 .187-.6 6.335 6.335 0 0 1 1.527-2.192 3.86 3.86 0 0 1 .516 1.94c0 .352-.045.74-.164 1.15a6.063 6.063 0 0 1-1.692 2.776c-.173-.39-.48-1.214-.48-2.16zm1.738-4.204c-.05.036-1.182.916-1.845 2.528a4.42 4.42 0 0 0-.209.66c-.444 1.829.49 3.552.53 3.626l.117.214.198-.144c.06-.041 1.452-1.062 2.058-3.176.617-2.146-.5-3.61-.55-3.67l-.13-.169-.17.13"/><path d="M27.25 29.813a4.472 4.472 0 0 1 .406-1.89 6.115 6.115 0 0 1 1.663-2.07c.132.276.336.813.336 1.543 0 .442-.074.95-.286 1.503a6.47 6.47 0 0 1-1.855 2.654 6.142 6.142 0 0 1-.264-1.74zm2.029-4.46c-.049.029-1.227.78-2.009 2.381a4.435 4.435 0 0 0-.244.631c-.549 1.77.147 3.551.176 3.626l.1.246.221-.146c.059-.042 1.477-.994 2.252-3.038.789-2.08-.16-3.574-.2-3.635l-.117-.18-.18.115"/><path d="M30.59 26.868c0-.571.073-1.245.318-1.882.085-.22.165-.394.252-.547a5.66 5.66 0 0 1 1.79-1.941c.082.224.192.617.192 1.155a4.25 4.25 0 0 1-.435 1.84 7.052 7.052 0 0 1-2.02 2.532 6.851 6.851 0 0 1-.097-1.157zm2.37-4.877c-.052.023-1.272.645-2.176 2.235a4.367 4.367 0 0 0-.279.605c-.655 1.702-.193 3.54-.175 3.62l.073.28.25-.151c.06-.035 1.505-.926 2.445-2.898.957-2.015.183-3.536.15-3.597l-.099-.189-.19.096"/><path d="M34.082 24.422c0-.677.083-1.742.518-2.686.095-.207.19-.378.286-.522.705-1.08 1.534-1.612 1.919-1.817.04.171.084.428.084.767 0 .569-.128 1.338-.62 2.187a7.658 7.658 0 0 1-2.18 2.408c-.002-.1-.006-.21-.006-.337zm2.784-5.533c-.054.022-1.314.516-2.343 2.085-.107.166-.21.357-.316.58-.753 1.64-.533 3.53-.522 3.61l.039.315.28-.149c.062-.037 1.533-.855 2.639-2.761 1.129-1.947.527-3.492.501-3.557l-.08-.198-.198.075"/><path d="M38.5 18.74c.103-.19.209-.354.317-.5.789-1.055 1.653-1.521 2.051-1.692.012.1.023.222.023.379 0 .58-.142 1.506-.85 2.534a8.45 8.45 0 0 1-2.34 2.287c.048-.635.21-1.932.799-3.008zm2.479-2.695c-.055.015-1.349.386-2.508 1.939a4.8 4.8 0 0 0-.352.549c-.858 1.575-.868 3.523-.868 3.605v.345l.311-.154c.066-.031 1.56-.783 2.834-2.622 1.296-1.875.869-3.447.85-3.51l-.062-.208-.205.056"/><path d="M42.92 15.517c.876-1.034 1.772-1.43 2.183-1.569.004.01.004.017.004.03 0 .498-.132 1.62-1.125 2.846a9.131 9.131 0 0 1-2.491 2.166c.139-.77.53-2.415 1.429-3.473zm2.344-2.064c-.055.012-1.385.259-2.674 1.784-1.282 1.517-1.583 4.019-1.597 4.124l-.043.376.344-.154c.066-.03 1.59-.715 3.027-2.485 1.462-1.81 1.207-3.399 1.194-3.465l-.036-.217-.215.037"/><path d="M5.203 34.89c0-16.372 13.32-29.695 29.697-29.695a29.76 29.76 0 0 1 13.879 3.45c-.623.71-3.083 3.516-3.46 3.948A24.356 24.356 0 0 0 34.9 10.278c-13.572 0-24.616 11.04-24.616 24.612 0 6.057 2.055 11.58 5.925 16.011a8.067 8.067 0 0 0-.618 3.137c0 1.236.285 2.718 1.155 4.295C9.561 52.606 5.203 43.903 5.203 34.89zm-.977 0c0 10.452 5.658 20.507 14.766 26.245l.378.237.27-.351a.47.47 0 0 0 .107-.286c0-.224-.192-.4-.3-.498l-.528-.51c-1.875-2.13-2.378-4.15-2.378-5.706 0-1.716.613-2.866.664-2.953l.169-.301-.23-.261c-3.85-4.293-5.882-9.693-5.882-15.615 0-13.035 10.604-23.638 23.639-23.638 3.622 0 7.1.798 10.333 2.37l.335.164 4.753-5.42-.527-.293A30.66 30.66 0 0 0 34.9 4.22c-16.915 0-30.674 13.76-30.674 30.672"/><path d="M45.659 12.747a24.376 24.376 0 0 0-10.76-2.469c-13.572 0-24.616 11.04-24.616 24.612 0 6.167 2.12 11.792 6.133 16.265l.421.471 1.871-2.829-.1-.115a4.437 4.437 0 0 1-.407-.066c.028-.076.065-.179.11-.29a24.301 24.301 0 0 1-.436-.53 4.37 4.37 0 0 1-.392.532c-.364-.393-1.305-1.536-1.305-2.928l.001-.134c-1.748-3.08-2.637-6.555-2.637-10.376 0-11.775 9.58-21.357 21.358-21.357 2.89 0 5.679.564 8.3 1.674.28-.29.559-.518.815-.698a22.127 22.127 0 0 0-9.115-1.95c-12.315 0-22.335 10.017-22.335 22.33 0 5.34 1.668 10.035 4.932 13.973l-.761 1.145c-3.574-4.211-5.475-9.413-5.475-15.117 0-13.035 10.604-23.638 23.639-23.638 3.461 0 6.786.735 9.897 2.175-.13.28-.258.557-.384.835.283-.163.527-.26.69-.315.004.01.004.018.004.03 0 .361-.071 1.057-.495 1.885l.112.056 1.366-2.964-.43-.208"/></g><g><path d="M45.44 7.923l-2.355 2.976c.218.076.432.15.647.23l2.334-2.954c-.207-.086-.415-.171-.626-.252M40.832 6.55l-1.37 3.399c.217.039.432.083.648.127l1.366-3.384a21.49 21.49 0 0 0-.644-.142M35.354 5.938l-.337 3.602c.219.002.436.006.652.009l.336-3.591c-.217-.01-.432-.015-.651-.02M30.019 6.346l.683 3.544c.214-.036.426-.07.642-.101l-.686-3.545c-.214.03-.427.065-.64.102M24.836 7.737l1.622 3.247c.206-.073.411-.141.62-.207l-1.626-3.262c-.205.07-.41.144-.616.222M19.925 10.113l2.418 2.76c.19-.109.385-.216.579-.321l-2.43-2.776c-.19.11-.38.225-.567.337M15.46 13.444l3.052 2.118c.17-.144.344-.286.52-.427l-3.073-2.134c-.168.144-.334.293-.499.443M11.663 17.628l3.506 1.362c.142-.176.289-.351.435-.522l-3.534-1.376a40.63 40.63 0 0 0-.408.536M8.73 22.498l3.772.525c.11-.204.22-.408.334-.608l-3.806-.532c-.102.205-.202.41-.3.615M6.808 27.842l3.848-.371c.067-.223.14-.447.216-.67l-3.888.37c-.06.224-.119.447-.176.67M5.976 33.438l3.721-1.294c.026-.24.055-.478.087-.718l-3.764 1.31c-.017.233-.032.467-.043.702M6.262 39.092l3.362-2.21a24.551 24.551 0 0 1-.045-.743l-3.415 2.243c.029.237.064.472.098.71M7.698 44.617l2.728-3.003c-.07-.249-.13-.502-.19-.755l-2.783 3.068c.076.233.16.462.245.69M10.264 49.905l1.93-3.67c-.12-.241-.24-.479-.354-.722l-1.967 3.74c.128.22.256.437.39.651M13.554 54.31l1.031-4.254a22.05 22.05 0 0 1-.502-.68l-1.053 4.337c.172.203.347.4.524.596M44.956 16.13l.266.176c.079-.035.158-.072.236-.102l.282-.096a5.125 5.125 0 0 1-.564-.434c-.062.149-.135.3-.22.457M91.85 31.097h-7.5v-.86h3.281V9.457H84.35v-.86h8.64l4.505 14.987h.363l4.64-14.987h8.532v.86h-3.32v20.78h3.32v.86h-10.977v-.86h3.32V9.77h-.232l-6.604 21.327H95.4l-6.5-21.295h-.33v20.435h3.281v.86M116.133 25.707h4.714l-2.236-6.388h-.265l-2.213 6.388zm3.964 5.39v-.586h2.41l-1.44-4.18h-5.176l-1.419 4.18h2.432v.586h-5.025v-.586h1.89l5.43-15.507h.784l5.57 15.507h1.912v.586h-7.368M136.425 31.097v-.586h2.41l-3.781-6.033-4.105 6.033h2.766v.586h-5.716v-.586h2.19l4.496-6.61-4.935-7.921h-1.681v-.625h7.365v.625h-2.27l3.261 5.308 3.63-5.308h-2.546v-.625h5.671v.625h-2.362l-3.99 5.872 5.453 8.659h1.694v.586h-7.55M161.8 20.003h1.96c2.105 0 3.574-.404 4.408-1.213.833-.809 1.25-2.23 1.25-4.267 0-1.892-.335-3.21-1.003-3.952-.669-.743-1.951-1.115-3.847-1.115H161.8v10.547zm3.476 11.094h-11.094v-.86h3.282V9.457h-3.281v-.86h11.06c2.988 0 5.23.514 6.73 1.543 1.5 1.028 2.248 2.577 2.248 4.645 0 2.056-.766 3.577-2.297 4.562-1.533.985-3.902 1.476-7.109 1.476H161.8v9.414h3.476v.86M189.15 31.097h-13.025v-.586h2.305V15.98h-2.305v-.625h7.656v.625h-2.305v14.53h2.444c1.554 0 2.685-.356 3.392-1.071.707-.714 1.17-1.971 1.385-3.772h.592l-.139 5.43M194.175 25.707h4.716l-2.237-6.388h-.265l-2.214 6.388zm3.966 5.39v-.586h2.409l-1.441-4.18h-5.176l-1.418 4.18h2.433v.586h-5.027v-.586h1.892l5.428-15.507h.784l5.568 15.507h1.915v.586h-7.367M218.825 25.86h.231v-9.88h-2.266v-.625h5.195v.625h-2.265v15.39h-.876l-9.659-15.01h-.208V30.51h2.305v.586h-5.273v-.586h2.305V15.98h-2.305v-.625h6.05l6.766 10.504M236.4 31.215h-.436l-.943-1.029a7.38 7.38 0 0 1-2.007.99c-.678.208-1.42.311-2.229.311-2.016 0-3.694-.78-5.034-2.342-1.337-1.563-2.007-3.525-2.007-5.888 0-2.408.672-4.387 2.02-5.933 1.345-1.547 3.074-2.32 5.182-2.32.793 0 1.5.098 2.119.293a5.06 5.06 0 0 1 1.669.894l.869-.898h.445v4.515h-.585c-.317-1.401-.862-2.448-1.633-3.14s-1.767-1.04-2.986-1.04c-1.35 0-2.324.44-2.923 1.318-.597.879-.896 2.323-.896 4.333v3.917c0 2.025.296 3.483.891 4.372.594.89 1.563 1.333 2.905 1.333 1.327 0 2.41-.388 3.252-1.165s1.407-1.912 1.702-3.405h.625v4.884M244.225 22.865l6.353-6.885h-2.45v-.625h5.822v.625h-2.359l-5.016 5.446 7.235 9.085h1.394v.586h-7.329v-.586h2.427l-6.077-7.646zm2.189 8.232h-7.695v-.586h2.305v-14.53h-2.305v-.626h7.695v.625h-2.304v14.531h2.304v.586"/></g></g><path d="M93.63 50.71c-.488-.634-1.39-1.243-2.681-1.243-3.364 0-3.364 4.07-3.364 4.9 0 2.169.56 4.68 3.364 4.68 3.607 0 3.607-3.974 3.607-4.924 0-1.78-.414-2.755-.926-3.413zm.853-7.873h2.291v15.625c0 .268.05 1.316.098 1.95h-2.291l-.05-1.95c-.194.34-.463.853-1.096 1.292-1 .682-2.194.901-3.022.901-1.634 0-5.265-.852-5.265-6.215 0-4.656 2.657-6.679 5.533-6.679 2.632 0 3.51 1.56 3.802 2.072v-6.996" fill="#b01419"/><path d="M102.014 48.174h2.291v12.237h-2.291V48.173zm-.243-5.313h2.754v2.51h-2.754v-2.51" fill="#d35015"/><path d="M117.395 57.267c.488-.634.83-1.292.83-3.51 0-1.535-.342-2.413-.952-3.046-.609-.66-1.585-1.074-2.632-1.074-2.9 0-3.29 2.926-3.29 4.486 0 1.877.56 4.363 3.363 4.363 1.34 0 2.121-.488 2.681-1.22zm-5.337 4.095c.097 1.365.682 2.388 2.851 2.388 3.193 0 3.242-2.315 3.242-5.63-.975 2.023-3.29 2.072-4.02 2.072-1.123 0-2.732-.244-3.756-1.511-1.047-1.244-1.389-2.877-1.389-4.51 0-4.144 2.438-6.166 5.436-6.166 2.462 0 3.364 1.218 3.851 1.852l.025-1.682h2.217l-.05 2.219-.023 7.653c0 2.95-.098 4.144-.585 5.07-1.024 1.95-3.413 2.194-5.094 2.194-4.9 0-5.046-2.291-5.144-3.949h2.438" fill="#efaa0a"/><path d="M125.875 48.174h2.291v12.237h-2.291V48.173zm-.245-5.313h2.755v2.51h-2.755v-2.51" fill="#4d8522"/><path d="M131.85 48.126h2.169v-2.56l2.267-.73v3.29h2.729v1.682h-2.729v7.337c0 .609 0 1.632 1.633 1.632a5.11 5.11 0 0 0 1.096-.12v1.778a11.26 11.26 0 0 1-1.9.147c-2.098 0-3.096-.61-3.096-2.609v-8.165h-2.169v-1.682" fill="#0483b8"/><path d="M148.813 54.39c-.925 0-4.412 0-4.412 2.487 0 .78.489 2.12 2.535 2.12 1.17 0 2.048-.462 2.608-1.316.512-.828.537-1.511.586-3.217a10.162 10.162 0 0 0-1.318-.073zm1.585 6.021c-.17-.609-.22-1.194-.22-1.828-1.097 2.023-2.754 2.218-3.777 2.218-2.805 0-4.316-1.584-4.316-3.608 0-.974.343-2.534 2.145-3.582 1.318-.732 3.268-.805 4.243-.805.585 0 .95.024 1.657.073 0-1.511 0-2.169-.44-2.705-.462-.61-1.461-.805-2.12-.805-2.315 0-2.437 1.584-2.462 2.072h-2.292c.074-.634.148-1.487.854-2.315.926-1.024 2.658-1.317 3.949-1.317 1.78 0 3.681.56 4.339 1.804.39.731.415 1.316.415 1.877l-.098 5.85c0 .195.024 1.828.195 3.07h-2.072" fill="#173e7d"/><path d="M157.637 60.411h2.292V42.837h-2.292v17.574z" fill="#4c2382"/><g fill="#AAA"><path d="M173.575 60.411h3.607V42.788h-3.607v17.623zM181.45 48.078h3.606v12.333h-3.606V48.078zm-.122-5.265h3.85v3.144h-3.85v-3.144M195.325 50.344c-2.657 0-2.657 3.023-2.657 3.802 0 2.804 1.194 4.144 2.828 4.144 2.485 0 2.485-3.095 2.485-3.73 0-.974-.047-4.216-2.656-4.216zm-6.117-7.508h3.607v6.753c1.219-1.61 2.852-1.658 3.486-1.658 2.998 0 5.363 2.364 5.363 6.508 0 4.607-2.683 6.215-5.145 6.215-.633 0-2.583-.048-3.704-1.973-.025.39-.05.974-.123 1.73h-3.485V42.837M205.313 51.125c0-.585-.098-2.364-.17-3.071h3.388l.073 2.364c.462-1.048 1.267-2.535 4.192-2.388v3.241c-3.656-.34-3.876 1.536-3.876 3.071v6.07h-3.607v-9.287M218.85 56.61c0 .828.56 1.754 1.755 1.754.658 0 1.194-.317 1.536-.707.633-.78.682-1.73.682-3.047-2.315-.194-3.973.537-3.973 2zm4.436 3.801c-.122-.755-.122-1.316-.122-1.682-1.365 1.975-2.999 1.975-3.68 1.975-1.779 0-2.584-.511-3.071-.975-.732-.731-1.073-1.73-1.073-2.705 0-.975.341-2.78 2.608-3.827 1.51-.682 3.68-.682 4.875-.682 0-.805-.024-1.195-.17-1.634-.318-.902-1.268-1.024-1.61-1.024-.512 0-1.048.22-1.364.683-.269.414-.269.804-.269 1.097h-3.534c.024-.658.098-1.975 1.389-2.9 1.123-.805 2.56-1 3.73-1 1.024 0 3.169.17 4.386 1.584.829 1 .854 2.462.854 3.023l.024 4.947c0 1.049.074 2.097.294 3.12h-3.267M230.55 51.125c0-.585-.098-2.364-.171-3.071h3.389l.073 2.364c.463-1.048 1.268-2.535 4.191-2.388v3.241c-3.655-.34-3.875 1.536-3.875 3.071v6.07h-3.607v-9.287M243.775 48.103l2.706 8.53 2.754-8.53h3.583l-4.654 12.09-1.488 4.899h-3.632l1.56-4.632-4.728-12.357h3.899"/></g><path stroke-linejoin="round" d="M84.455 37.254h171.9" stroke="#9c9a9b" stroke-miterlimit="8" stroke-width=".5625" fill="none"/></svg>