<?xml version="1.0" encoding="UTF-8" standalone="no"?>
<!-- Generator: Adobe Illustrator 19.2.1, SVG Export Plug-In . SVG Version: 6.00 Build 0)  -->

<svg
   version="1.1"
   id="layer"
   x="0px"
   y="0px"
   viewBox="0 0 435.60001 435.60001"
   xml:space="preserve"
   sodipodi:docname="mpg-logo-white.svg"
   inkscape:version="1.1.2 (76b9e6a115, 2022-02-25)"
   width="435.60001"
   height="435.60001"
   xmlns:inkscape="http://www.inkscape.org/namespaces/inkscape"
   xmlns:sodipodi="http://sodipodi.sourceforge.net/DTD/sodipodi-0.dtd"
   xmlns="http://www.w3.org/2000/svg"
   xmlns:svg="http://www.w3.org/2000/svg"><defs
   id="defs141" /><sodipodi:namedview
   id="namedview139"
   pagecolor="#ffffff"
   bordercolor="#666666"
   borderopacity="1.0"
   inkscape:pageshadow="2"
   inkscape:pageopacity="0.0"
   inkscape:pagecheckerboard="0"
   showgrid="false"
   inkscape:zoom="1.1027607"
   inkscape:cx="129.22114"
   inkscape:cy="262.52295"
   inkscape:window-width="3840"
   inkscape:window-height="2040"
   inkscape:window-x="0"
   inkscape:window-y="27"
   inkscape:window-maximized="1"
   inkscape:current-layer="layer"
   fit-margin-top="0"
   fit-margin-left="0"
   fit-margin-right="0"
   fit-margin-bottom="0" />
<style
   type="text/css"
   id="style2">
	.st0{fill:#006C66;}
	.st1{fill-rule:evenodd;clip-rule:evenodd;fill:#006C66;}
	.st2{fill:none;stroke:#006C66;stroke-width:1.2534;stroke-miterlimit:10;}
</style>
<g
   id="g136"
   transform="translate(-102.3,-72.2)"
   style="fill:#ffffff">
	<path
   class="st0"
   d="m 102.3,290 c 0,120.1 97.7,217.8 217.8,217.8 120.1,0 217.8,-97.7 217.8,-217.8 C 537.9,169.9 440.2,72.2 320.1,72.2 200,72.2 102.3,169.9 102.3,290 m 6.1,0 c 0,-116.7 95,-211.7 211.7,-211.7 116.7,0 211.7,95 211.7,211.7 0,116.7 -95,211.7 -211.7,211.7 -116.7,0 -211.7,-95 -211.7,-211.7"
   id="path4"
   style="fill:#ffffff" />
	<path
   class="st0"
   d="m 380.5,421 c -5.3,18.3 -7.8,27.8 0.5,46.7 0.1,0.7 0.9,3.1 0,3.4 -9.1,-1.8 -11.6,-2.6 -20.1,-3.3 -7.9,-1.4 -21.1,0.8 -29.9,0.8 -6.9,0.2 -13.9,0.5 -21.1,1.4 -2.2,-1.1 -0.5,-3.5 -0.3,-5.1 0.8,-2.5 0.9,-3.8 1.1,-6.6 1.1,-1.2 2.5,-0.6 3.8,-1.1 4.6,-0.7 8.6,-4.8 9.7,-9.1 1.4,-4.6 -0.2,-9.6 -2.2,-13.9 -0.4,-1.3 -2.2,-2.2 -1.4,-3.5 5.7,-10.7 1.7,-21.5 -0.2,-31.9 -2,-7.4 -5,-15.5 -6.3,-23.3 0.2,-0.8 -0.8,-2.6 1,-2.8 l 0.6,0.2 c 6.1,7.4 23.5,23 30,28 6.5,5.1 23.4,14.9 34.3,17.5 1.1,0.6 0.9,1.4 0.5,2.6 m -81,18.9 c 0,-1 0.1,-1.4 0.8,-1.7 h 4 c 3.5,0.1 8,1.3 11.3,-2.1 1.9,0.1 2.1,2.3 2.6,4.1 0.5,2.4 0.3,4 0.3,6.1 -0.8,1.7 -1.7,4.4 -3.5,5.5 -2.8,1.3 -5.7,1.1 -8.4,0 -4.2,-2.5 -7.2,-6.4 -7.1,-11.9 m 6.7,20.2 c -0.5,4.8 -6.5,9 -9.4,9.8 -2.9,0.8 -11.7,0.4 -14.3,-0.4 -2.5,-0.9 -8.7,-12.9 -8,-19.2 0,-5.2 1.4,-13.3 3.5,-14 2.1,-0.6 7.6,-0.3 7.6,-0.3 2.3,-0.2 4,0.4 6,0.6 1.4,0.5 0.4,2.3 0.9,3.4 0.6,2.7 0.8,5.5 2.5,8.2 2.3,4.5 6.5,7.1 10.7,8.7 1,0.8 0.4,2 0.5,3.2 m -34.1,8.2 c -1.6,1.7 -2.5,0.9 -4.2,1.1 -4.7,-1.3 -7.5,-3.3 -8.8,-8.7 -1.7,-7.4 -1.7,-15.6 0,-23.2 l 0.8,-0.6 c 3.3,-0.4 8.3,-1.1 9.7,-0.3 1.4,0.7 -1.5,14.1 -1.5,14.1 -0.1,2.7 1.2,9.4 2.4,13 0.2,0.5 2.9,3.2 1.6,4.6 m 55.7,-158.7 -0.2,4.6 c -0.4,4.2 -2.3,9 -6.3,11.3 -2.3,-0.6 -1.5,-3.4 -2.1,-5.3 1.5,-4.2 4.4,-7.6 6.8,-11.3 0.3,-0.2 0.7,-0.4 1,-0.2 z m 33.9,-36.8 c -2.4,1.1 -4.9,1.4 -7.6,0.1 -0.7,-0.9 -2.9,-1.7 -2,-3 1.9,-3.2 5.2,-5.8 7.3,-8.9 l 0.9,-0.5 c 4.1,-5 10.6,-9.1 16.7,-12.8 l 3.7,-1.6 c 0.8,-0.8 2.7,-2.5 3.4,-0.7 0.1,6.5 -2.6,13.4 -8.7,17.9 -3.7,2.8 -5.3,2.2 -8.7,2.4 l -1.7,3.1 c -0.4,1.5 -1.7,3.1 -3.3,4 m -13.3,60.9 c -1.1,0.6 -10.8,-3 -9.7,-2 -2.3,-2.5 1.5,-3.3 -7.1,-6.5 l -2.1,0.2 c -0.3,0.2 -1,0.6 -1.8,-0.4 -0.1,-1.3 1.6,-1.1 2.1,-2.7 3.1,-6.9 1.4,-12.2 1.1,-19.3 l 2.3,-5.8 c 4.3,-5.2 4.3,-5.9 7.2,-8.7 2.9,-4.1 3.5,-4.4 7.4,-7.8 0.6,-0.5 1.8,-1 2.6,-0.3 1.8,1.4 1.9,2.4 2.5,4.2 0.9,6.8 -3.2,11.5 -8.2,15.2 -3.5,3 -6.9,7.8 -6.1,12.4 l 0.3,0.3 c 1.6,-1.4 3.6,-2.1 4.3,-3.8 2.7,-6 9.9,-8.7 14,-13.9 1.8,-3.1 0.7,-8.5 0,-12.1 0,0.1 5.3,-2.5 3.9,-1.6 2.5,1 2.2,2.8 3.4,5.2 2.4,6 2.2,11.4 -1.5,16.6 l -10.1,12.6 c -0.1,6.2 1.7,14.4 -4.5,18.2 m 42.8,-95.8 0.7,-0.9 c 3.1,-1.5 6.1,-2.6 9.5,-3.6 l 4.2,-1.1 c 1.1,-1 3.1,-1.8 4.2,-0.4 0.1,5.4 -4,11.9 -9.9,14.4 -1.9,0.8 -4.4,1.1 -6.6,1.6 -0.6,-0.5 -2.4,0.5 -2.9,-0.8 0.2,-2.7 1.2,-6.8 0.8,-9.2 m 40.2,-10.1 c -0.2,3.9 -5.4,7.1 -9.7,8.3 -1.8,0.3 -3.6,0.2 -5.2,0.2 -0.4,-0.3 -0.9,-0.7 -0.8,-1.1 0.3,-1.8 0.6,-2.9 0.7,-4.6 l 1.1,-0.8 c 3.8,-0.8 8.5,-1.6 12.3,-2.6 0.5,0.1 1.2,0.1 1.6,0.6 m -123.5,77.6 c 11.2,-20.1 24.8,-37.5 39.4,-55.5 l 20.4,-23.2 c 14.6,-15.5 30.7,-31.5 48.5,-43.8 2.2,-1.3 3.2,-3.9 5.5,-2.1 l 2.1,1.9 c 1.4,1.6 0.2,6.1 -1.3,7.4 -1.2,0.9 -2.3,1.9 -3.4,2.8 3.5,3.4 8.5,10 12.6,14.2 1.8,1.9 1.2,3.8 4.5,5.3 1.6,0.8 2.1,2.5 1.1,4 -2.9,3.7 -7.7,3.1 -11.4,4.1 -14,3.1 -25.3,7.1 -40.8,14.6 -12.4,6.6 -22.3,13.8 -31.3,25.1 -3.4,4.2 -7.3,7.4 -10.2,12.6 -8.2,10.5 -14.7,20.3 -21.1,31.1 -2.3,3.4 -3.1,5.1 -6.3,8.2 -1.6,1.5 -3,-1.6 -4,-2.7 -0.1,-0.1 -0.2,-0.3 -0.3,-0.4 -0.3,0 -0.7,0 -1,-0.2 -0.7,-0.9 -3.5,-1.4 -3,-3.4 m 129.9,-74.9 c -0.4,0.5 -1,1 -1.8,0.8 -1.7,-1.2 -1.1,-2.7 -1,-4.1 0.3,-0.3 0.4,-0.5 1,-0.5 0.8,-0.1 1.3,0.5 1.6,0.9 0.5,0.8 0.6,1.9 0.2,2.9 M 249.7,460.7 c -3.3,0.1 -5.6,-1.7 -7.1,-5.6 -1.5,-4.9 -2,-9.3 -1,-14.3 0.3,-0.6 1.1,-1 1.5,-0.8 l 4.6,-1.6 c 1.5,-0.6 2.8,-0.8 4.3,-0.5 l 0.9,0.9 c -0.1,2.7 -0.7,4.6 -0.8,7.1 -0.3,6.2 -0.8,8 1,13.9 -0.6,1.6 -2,0.9 -3.4,0.9 m -13.6,-17.3 c -0.7,1.3 -0.6,2.1 -0.9,3.7 -0.4,0.7 -2.4,-0.3 -3,-0.6 -2.5,-1.3 -2.3,-0.7 -3,-3 -0.4,-1.5 -0.4,-3.4 2.2,-4.7 1.6,-0.9 4.8,-2 5.8,0 0.2,1.3 -1.4,3.1 -1.1,4.6 m 228.8,-132 c -5.8,-13.3 -12.2,-24.7 -17,-38.1 -3.4,-4.8 -1.4,-9.9 -1.8,-15 -2.2,-8 -5.5,-14.2 -8.7,-21.9 -0.9,-2.2 1.6,-2.9 2.5,-4.5 1.4,-3.9 0.4,-8.3 -1.4,-12.1 -0.7,-2.2 1.8,-3.7 1.4,-5.9 -0.1,-3.4 -3.1,-5.8 -5.5,-7.6 -3.6,-5.2 -5.3,-7.9 -9.8,-12.7 v -0.9 c 2.2,-2 4.1,-5.4 4,-8.4 -0.9,-3.4 -1.6,-6.5 -4.8,-8.8 -5.1,-2.9 -10.3,1.6 -14.4,3.9 -1.1,0.8 -1.7,1.6 -3.3,1.4 -1,-0.4 -2.1,-0.8 -3.2,-1.1 -1,1.2 -2.3,2.5 -3.9,3.7 l 5,2 c 0.2,0.1 0.2,0.2 0.2,0.4 0,0.1 0,0.3 -0.1,0.4 -0.3,0.3 -11.5,10.1 -11.5,10.1 0,0 -20.1,19.9 -20.1,19.9 0,0 -5.8,5.9 -5.8,5.9 0,0 -17.9,20.6 -17.9,20.6 -9.3,10.8 -23.1,28.6 -31.4,41.6 -4.3,6 -8.6,12.6 -12.6,18.8 -0.4,0.7 -1.3,0.6 -2.5,0.5 -0.9,-0.1 -1.8,-0.2 -2.6,0.1 v 0 h -0.2 c 0,0 0.1,0 0.1,0 -4.5,0.5 -7.8,2 -11.4,5.2 -4.6,5.4 -6.9,11.9 -6.9,19 0,4.8 1.1,10 3.3,15.1 -0.9,2.7 -3.1,5.2 -5,7.3 l -1.1,1.2 -1.4,1.4 c -0.9,0.9 -1.9,1.8 -2.7,2.8 l -0.1,0.1 v 0.1 c -0.1,0.3 -0.1,0.9 0.8,1.3 l 0.2,0.1 0.2,-0.1 c 4.2,-1 6.9,-4.2 9.5,-7.3 0,0 1.6,-1.9 1.9,-2.1 0.4,-0.1 0.7,0.1 1.3,0.6 0.3,0.2 0.6,0.5 1,0.7 v 0.2 c 0,0 -0.1,1.4 -0.1,1.7 -10,9.9 -18.2,15.5 -28.8,21.7 l -1.8,1 2.1,0.2 c 4.2,0.4 8.1,-1.9 11.9,-4.2 l 4.6,-2.5 c 4.2,-2.2 8.2,-5.5 12,-8.7 0,0 3.4,-2.9 3.8,-3.2 0.4,0.1 0.8,0.5 1.1,0.9 0,0 0.2,0.2 0.4,0.4 0.1,0.1 3.2,6.3 3.4,6.7 -0.7,2.9 -1,5.9 -1,8.8 0,6.4 1.4,12.8 2.8,19 1.3,6.2 2.7,12.5 2.7,18.7 0,0.4 0,0.8 0,1.2 0,1.9 -2.1,4.5 -3.9,5.3 -4,0.7 -8.8,0.7 -14,0.8 -6.3,0.1 -12.8,0.1 -17.8,1.5 -1.6,0.2 -3.5,0.7 -5.3,1.2 -1.8,0.5 -3.6,1 -5.3,1.2 h -0.2 l -0.2,0.1 -0.6,0.4 c -0.6,0.4 -1.3,0.8 -1.4,1.6 0,0.1 0,0.1 0,0.2 0,0.5 0.2,1 0.6,1.4 0.3,0.4 0.8,0.5 1.2,0.5 1.5,0 3.2,-0.6 4.8,-1.2 1.1,-0.4 2.3,-0.9 3.4,-1 10.4,-1.8 21.9,-1.4 29.6,-0.8 3.8,-0.1 10.1,-0.2 12.4,-5.6 0.8,-2.2 1.1,-4.2 1.1,-6.2 0,-2.2 -0.3,-4.3 -0.7,-6.4 l -0.7,-5.3 c -0.5,-3.2 -1.1,-6.4 -1.8,-9.5 -1.2,-5.5 -2.4,-11.2 -2.4,-17 0,-1.2 0.1,-2.3 0.2,-3.5 0.1,-0.1 0.2,-0.3 0.4,-0.3 0.3,0 0.9,0.4 1.4,0.8 0.5,0.4 1.1,0.8 1.7,1 0.7,0.5 1.5,0.7 2.2,0.8 1,0.1 1.5,0.3 1.9,1 0.4,5.1 2.2,10.3 3.9,15.3 1.2,3.5 2.4,7.1 3.1,10.6 1.4,6.1 2.8,12.4 2.8,18.5 0,3.7 -0.5,7.3 -1.8,10.9 -2.7,4.9 -8.5,4.9 -14.2,4.9 H 301 l -13.8,-0.8 c -11.9,-0.9 -24.2,-1.7 -36.8,0.3 0.1,0 -2.8,0.3 -2.8,0.3 -1.6,0.2 -3,0.4 -4.6,0.1 -0.6,-0.5 -1,-1.3 -1,-2.1 0,-0.3 0,-0.5 0.2,-0.8 2.3,-5 3.4,-9.4 3.4,-13.4 0,-3.2 -0.7,-6.1 -2.2,-8.6 -3.3,-6.2 -6.8,-10.6 -11.2,-13.6 -5.4,-5.4 -10,-10.2 -14.1,-14.9 -2.4,-0.3 -3.9,-0.8 -4,-0.8 l -0.5,-0.2 -2.4,3 c 3.1,3 6,5.9 9.5,9.1 5.4,2.9 9.7,8.1 13.5,11.6 4.6,5.4 5.8,11.2 4.8,17.6 -0.6,7.6 -7.6,10.9 -12.3,15.9 -1.9,3.6 -3.1,7.9 -0.5,11.3 1.7,4.5 8.9,3.7 9.8,7.4 2,8.1 16.1,12.8 18.8,13 2.7,0.2 5.6,3.2 5.6,3.2 5.6,4.1 13,3.1 16.8,2.5 3.9,-0.6 10.8,2.5 15.1,1.9 6.5,-2.6 11.8,-1.4 18.5,-1.9 21.1,0.3 45.1,-0.2 66.8,2.6 4,-0.5 8.8,2.6 12.6,0.7 1,-1.6 0.2,-3 0,-4.3 -10.3,-16.2 -11.9,-34.5 -6,-52.2 l 3.9,0.2 c 14,1.5 26.8,-0.3 41,-8.5 7.1,-3.9 10.9,-13.1 10.5,-19.7 -0.2,-4.3 -1.7,-9.4 -1,-14 0.3,-2 1.6,-5.1 3.4,-6.1 0.7,-0.4 3.4,-2.2 4.2,-4.5 1.4,-3.7 -1.6,-5.5 -2.4,-6 2.3,-0.9 4.5,-5.5 2.4,-9.1 -1.3,-1.4 -2.9,-7 -3.1,-8.9 -0.5,-2.6 -0.6,-5.4 1.9,-7 5.6,-3 10.9,-3.7 16.7,-6.2 4,-1.7 6.1,-5.8 5.9,-9.6 z m -1.7,14 c -5.9,5.5 -14.3,5.6 -21.1,10.1 -3.1,3.1 -2.3,6.7 -1.1,10.6 2.5,5 1.6,4.5 -1.9,5.6 -8.2,2.7 -8.1,11.7 -18,10.2 -0.6,0.2 -2.9,-1 -1.5,0.7 1.1,1.3 1.5,0.5 3.6,0.8 3.5,0.2 4.8,-1.3 7.3,-3 3.5,-3 3.1,-4.1 7.4,-6.2 1,-0.2 3.6,-1 5,-0.5 1,0.9 1,0.9 1.1,1.7 -0.6,2.4 -4.1,4.4 -5.4,5.2 1.8,1.4 5.3,3.6 4.7,5.6 -0.8,1.3 -0.8,1.5 -2.1,2.1 -1.9,0.9 -5.9,0.8 -9.5,-1.9 -0.6,0.2 -1.2,-1.1 -2.7,0.4 3.6,3.7 8.6,2.9 9.4,3.6 0.8,0.8 -2.7,5.2 -2.8,6.2 -2.4,6.4 0.5,12.3 -0.7,18.9 -0.8,5.2 -2.3,7.7 -6.9,10.9 -8.3,5.8 -14.2,7.5 -23.6,9 -24.6,1.7 -40.1,-6.8 -57.8,-20 -17.7,-13.2 -24.5,-20.2 -30,-27.7 -0.1,-3 2.2,-5.4 0.2,-8.6 -1.6,0.6 -1.4,2.6 -2.4,3.8 -1.4,1.9 -4.6,3.4 -7,3.1 -7.3,-2.5 -7.7,-11 -12.2,-15.9 -9.8,-9.6 -12.5,-23.5 -7.3,-35.1 1.8,-3.6 5.1,-7 8.8,-8.3 4.5,-0.7 9.9,-0.7 12.9,3.7 3.5,3.4 5.7,8.8 6.6,13.6 1.4,2.3 -0.3,5 2.1,6.9 4.2,0.4 7.8,1.4 11.8,-1.1 3,0.4 3.4,3.7 5.6,5.1 l 4,2.4 c 4.2,1.8 9.7,1.8 13.3,-1.4 6.7,-6.9 5.3,-14 7.6,-21.6 6.4,-5.7 10.7,-13.8 10.6,-21.7 -0.4,-4.9 -2.2,-9.9 -5,-14.8 0.5,-2.9 2.1,-5 3,-7.6 0.8,-0.5 1.8,-0.5 2.7,-0.6 7.1,-1.5 13.6,-8 16.4,-14.8 l 0.6,-0.6 c 8.2,-0.6 18.3,-3.4 23.1,-12 1,-3.7 5.1,-1 7.7,-1.8 4.3,-0.2 8.6,-2.6 11.9,-5.4 1,-0.3 1.7,0.7 2.2,1.2 1.9,6.4 5.4,12.6 7.4,19.1 2.5,4.9 3.4,9.5 2.5,14.5 1,7.6 5.4,14.7 8.4,22.4 3,8.1 7.8,16.3 11.2,24.6 0.6,3.2 2,5.9 -0.1,8.6"
   id="path6"
   style="fill:#ffffff" />
	<path
   class="st0"
   d="m 426.8,261.6 c 1.1,1.4 1.8,2.7 1,4.1 -2.1,0.2 -2.4,-2.5 -4.2,-3.4 -2.9,-1.4 -5.4,0.1 -8.3,0.8 -7.3,3.1 -13.4,9.4 -20.4,12.6 -0.9,0 -1.7,-0.1 -2.2,-0.7 1.2,-1.2 3.1,-1.4 4.6,-2.4 7.3,-4.8 14.3,-12.3 23.4,-13.7 2.4,-0.1 4.6,0.8 6.1,2.7"
   id="path8"
   style="fill:#ffffff" />
	<path
   class="st0"
   d="m 419.8,288.2 c -1.1,1.7 -2.9,0.2 -4.5,0.4 -3.6,-0.4 -9.7,0.4 -13.7,-0.1 -0.6,-0.3 -1,-1 -0.7,-1.5 0.6,-1 2.3,-1 3.3,-1.8 4.4,-2.7 8.9,-5.3 13.9,-6.5 0.9,-0.1 1.6,0.6 1.8,1.3 0.7,2.2 0.3,5.9 -0.1,8.2 m 6.4,-14.3 c -0.6,-1.8 -0.5,-4.6 -2.6,-5 -0.5,1.1 0,2.3 -0.5,3.4 -0.6,0.8 -1.8,1.8 -3,1.4 -8.8,0.6 -15.4,8.3 -22.9,12.3 -2.6,1.4 -5.4,2.3 -8.2,3 -0.2,0.4 -0.2,1 0.2,1.2 8.3,0.9 16.6,1.7 24.8,2.6 l 9.2,-1 c 0.2,-1.2 -1.2,-2.2 -1,-3.6 1,-3.8 1.4,-7.8 0.3,-11.4 0.9,-2 3.6,-0.5 3.7,-2.9"
   id="path10"
   style="fill:#ffffff" />
	<path
   class="st0"
   d="m 430.9,315.2 c 0.3,-0.4 0.6,-0.9 1,-0.9 0.5,0.2 0.8,0.4 0.9,1.4 -0.1,1.5 -0.5,3.2 -0.9,4.9 -0.5,2 -1,4 -1,5.9 0,0.9 0.1,1.7 0.3,2.6 1.2,1.4 2.9,1.8 5.1,1 0,0 3.6,-2.1 3.6,-2.1 3.1,-1.9 6.1,-3.6 11.6,-5 0.1,0 0.2,0 0.2,0 0.1,0.1 0.1,0.3 0.1,0.6 0,0.5 -0.1,1.1 -0.4,1.6 -0.2,0.1 -5.3,2.4 -5.3,2.4 -4,1.7 -8.1,3.6 -12,5.8 -1.1,0.2 -2.2,-0.4 -3.2,-1 l -0.3,-0.1 c -1.5,-2 -1.9,-4 -1.9,-5.9 0,-1.8 0.4,-3.5 0.8,-5.3 0.4,-1.7 0.7,-3.4 0.8,-5.2 0.3,-0.3 0.6,-0.7 0.6,-0.7"
   id="path12"
   style="fill:#ffffff" />
	<path
   class="st0"
   d="m 306.2,313.6 c 2.9,5.9 -0.2,11.5 0,17.7 0.5,1.8 3.9,2 2.9,4.1 -0.8,0.6 -1.9,0.7 -2.8,0.1 -1.6,-1 -2.2,-1.8 -2.6,-3.7 -0.4,-5.4 3.9,-11.8 0.1,-16.9 -1.1,-1.1 -2.7,-2.2 -4.3,-2.3 -3.4,0.6 -5.2,4.3 -6.4,7 -1.8,7.2 -2.3,14.8 4,20.6 3.7,2.2 8.2,4.5 8.4,9.1 0.6,0.8 1.7,1.6 2.6,1.1 1.1,-0.1 1.3,-3.3 2.9,-1.8 l 0.5,1.1 c -0.4,1.3 -0.8,3.5 -2.9,3.6 -1,0.2 -2.2,-0.3 -3,-1 -2.2,-2.3 -0.5,-5.8 -4.3,-7.4 -6.2,-1.9 -10.3,-8.5 -11,-14.7 -0.4,-5.9 -0.2,-12.4 5,-17.6 2,-1.5 4.6,-2.5 7.2,-1.7 1.4,0.4 3,1.4 3.7,2.7"
   id="path14"
   style="fill:#ffffff" />
	<path
   class="st1"
   d="m 229.1,359.3 c 8.3,-3.9 17.8,-3.4 21.4,-3.1 -1,3.3 -4.5,11.9 -13.9,16.5 -9.5,4.7 -17.6,3.5 -20.6,2.9 1,-3.3 4.7,-12.4 13.1,-16.3 m -1.2,-2.5 c -11.4,5.3 -14.9,18.9 -15,19.4 l -0.3,1.2 1.2,0.4 c 0.5,0.1 11,3.6 23.9,-2.7 13,-6.4 15.7,-19.3 15.8,-19.8 l 0.3,-1.4 -1.4,-0.2 c -0.5,0 -13.3,-2.1 -24.5,3.1"
   id="path16"
   style="fill:#ffffff" />
	<path
   class="st1"
   d="m 240.4,333.7 c 8.3,-3.7 17.3,-3.3 20.8,-2.9 -1.1,3.2 -4.6,11.4 -14,16 -9.4,4.5 -17.5,3.6 -20.6,3.1 1.3,-3.4 5.4,-12.4 13.8,-16.2 m -1.1,-2.4 c -11.4,5.2 -15.6,18.6 -15.8,19.2 l -0.4,1.3 1.3,0.4 c 0.4,0.1 11,3.3 23.9,-2.9 13.1,-6.3 15.8,-18.7 16,-19.2 l 0.3,-1.4 -1.4,-0.2 c -0.5,-0.2 -12.7,-2.3 -23.9,2.8"
   id="path18"
   style="fill:#ffffff" />
	<path
   class="st1"
   d="m 255.2,309.1 c 8.3,-3.6 16.8,-3.1 20.2,-2.7 -1.1,3.1 -4.7,11 -14.2,15.4 -9.3,4.3 -17.3,3.7 -20.6,3.2 1.6,-3.4 6.3,-12.3 14.6,-15.9 m -1.1,-2.5 c -11.4,5 -16.4,18.3 -16.6,18.9 l -0.5,1.4 1.4,0.4 c 0.5,0.1 11,3 24,-3.1 13.1,-6.1 16,-18.1 16.1,-18.6 l 0.3,-1.4 -1.4,-0.3 c -0.4,-0.1 -12,-2.2 -23.3,2.7"
   id="path20"
   style="fill:#ffffff" />
	<path
   class="st1"
   d="m 269.9,284.8 c 8.2,-3.5 16.4,-3 19.6,-2.6 -1.2,3.1 -4.8,10.6 -14.3,14.8 -9.2,4.2 -17.2,3.8 -20.5,3.4 1.8,-3.5 6.9,-12.1 15.2,-15.6 m -1.1,-2.5 c -11.4,4.9 -17.1,18.1 -17.4,18.6 l -0.6,1.5 1.5,0.4 c 0.4,0.1 10.9,2.6 24,-3.3 13.2,-6 16.2,-17.6 16.3,-18 l 0.3,-1.4 -1.4,-0.3 c -0.4,-0.1 -11.3,-2.4 -22.7,2.5"
   id="path22"
   style="fill:#ffffff" />
	<path
   class="st1"
   d="m 290.3,260.4 c 8.2,-3.4 15.9,-2.8 19,-2.4 -1.2,3 -5,10.1 -14.4,14.3 -9.2,4.1 -17,3.9 -20.5,3.5 2.1,-3.5 7.6,-11.9 15.9,-15.4 m -1.1,-2.5 c -11.5,4.8 -17.9,17.8 -18.1,18.4 l -0.7,1.5 1.7,0.4 c 0.5,0.1 10.9,2.3 24,-3.5 13.2,-5.8 16.3,-17 16.4,-17.4 l 0.4,-1.3 -1.4,-0.3 c -0.5,-0.2 -10.9,-2.5 -22.3,2.2"
   id="path24"
   style="fill:#ffffff" />
	<path
   class="st1"
   d="m 312.7,236.9 c 8.1,-3.3 15.4,-2.7 18.4,-2.3 -1.3,2.9 -5.1,9.7 -14.5,13.7 -9.1,3.9 -16.9,3.9 -20.4,3.7 2.3,-3.5 8.3,-11.7 16.5,-15.1 m -1,-2.5 c -11.5,4.6 -18.6,17.6 -18.9,18.1 l -0.9,1.6 1.8,0.3 c 0.4,0.1 10.9,2 23.9,-3.6 13.3,-5.7 16.5,-16.4 16.6,-16.9 l 0.4,-1.3 -1.3,-0.3 c -0.4,-0.1 -10.1,-2.5 -21.6,2.1"
   id="path26"
   style="fill:#ffffff" />
	<path
   class="st1"
   d="m 336.7,214.7 c 8.1,-3.2 14.9,-2.6 17.8,-2.1 -1.3,2.8 -5.3,9.3 -14.6,13.2 -9,3.7 -16.7,4 -20.3,3.8 2.5,-3.6 8.9,-11.7 17.1,-14.9 m -1,-2.5 c -11.5,4.5 -19.4,17.3 -19.7,17.9 l -1,1.7 2,0.3 c 0.4,0.1 10.8,1.6 24,-3.8 13.3,-5.6 16.6,-15.8 16.8,-16.3 l 0.4,-1.3 -1.3,-0.4 c -0.5,-0.1 -9.7,-2.6 -21.2,1.9"
   id="path28"
   style="fill:#ffffff" />
	<path
   class="st1"
   d="m 361.6,194.2 c 8,-3 14.4,-2.4 17.2,-1.9 -1.4,2.7 -5.4,8.8 -14.7,12.6 -8.9,3.6 -16.5,4 -20.2,3.9 2.8,-3.6 9.6,-11.5 17.7,-14.6 m -0.9,-2.5 c -11.5,4.4 -20.1,17.1 -20.5,17.6 l -1.2,1.8 2.2,0.3 c 0.4,0.1 10.8,1.3 23.9,-4 13.4,-5.4 16.8,-15.2 16.9,-15.7 l 0.4,-1.3 -1.3,-0.4 c -0.3,-0.1 -8.9,-2.7 -20.4,1.7"
   id="path30"
   style="fill:#ffffff" />
	<path
   class="st1"
   d="m 387,175.9 c 7.9,-2.9 14,-2.3 16.6,-1.8 -1.5,2.6 -5.5,8.4 -14.9,12.1 -8.8,3.4 -16.3,4 -20.1,4.1 3.1,-3.8 10.3,-11.4 18.4,-14.4 m -1,-2.5 c -11.6,4.3 -20.9,16.8 -21.2,17.4 l -1.4,1.9 2.3,0.2 c 0.4,0 10.8,1 24,-4.2 13.4,-5.3 16.9,-14.7 17.1,-15.1 l 0.5,-1.3 -1.3,-0.4 c -0.4,-0.1 -8.3,-2.8 -20,1.5"
   id="path32"
   style="fill:#ffffff" />
	<path
   class="st1"
   d="m 203.3,355.6 c 0,-0.4 0,-0.8 0,-1.2 0.6,-9.3 5.6,-17.4 7.6,-20.4 2.3,2.4 7.9,9.2 7.9,19.1 0,0.4 0,0.8 0,1.2 -0.5,10.6 -5.4,17.3 -7.4,19.6 -2.2,-2.5 -8.1,-9.6 -8.1,-18.3 m 6.4,-24.5 c -0.3,0.4 -8.3,10.7 -9.1,23.1 -0.8,12.6 9.5,22.2 9.9,22.6 l 0.9,0.8 0.9,-0.8 c 0.3,-0.3 8.5,-8 9.1,-22.4 0.6,-14.5 -9.5,-23.1 -9.9,-23.5 l -1.1,-0.9 z"
   id="path34"
   style="fill:#ffffff" />
	<path
   class="st1"
   d="m 218,328.1 c 0,-0.8 0,-1.6 0.1,-2.4 0.2,-1.4 0.4,-2.8 0.8,-4 2,-7.3 6.1,-13 7.9,-15.3 1.9,2.3 6.2,8.3 6.2,16.8 0,1 -0.1,2 -0.2,3.1 -1.2,10.2 -6.3,16.6 -8.5,18.8 -1.9,-2.5 -6.3,-9.1 -6.3,-17 m 7.8,-24.7 c -0.3,0.3 -6.7,7.4 -9.5,17.6 -0.4,1.4 -0.7,2.9 -0.8,4.4 -1.5,12.2 7.3,22.2 7.7,22.7 l 0.9,1 1,-0.8 c 0.3,-0.3 8.7,-7.5 10.4,-21.6 1.7,-14.2 -7.4,-22.9 -7.7,-23.3 l -1,-0.9 z"
   id="path36"
   style="fill:#ffffff" />
	<path
   class="st1"
   d="m 234.5,302.7 c 0,-1.3 0.1,-2.6 0.3,-3.9 0.3,-1.4 0.6,-2.7 1,-3.9 2.4,-7.2 6.8,-12.4 8.7,-14.5 1.5,2.2 4.6,7.4 4.6,14.5 0,1.6 -0.2,3.3 -0.5,5.1 -2,9.8 -7.2,15.8 -9.5,18.1 -1.5,-2.5 -4.6,-8.5 -4.6,-15.4 m 9.3,-25.3 c -0.3,0.3 -7,6.6 -10.5,16.7 -0.4,1.3 -0.8,2.7 -1.1,4.3 -2.1,11.8 5.2,22.2 5.5,22.7 l 0.8,1.1 1.1,-0.9 c 0.4,-0.3 8.9,-7.1 11.6,-20.7 2.8,-13.8 -5.2,-22.7 -5.6,-23.1 l -0.9,-1 z"
   id="path38"
   style="fill:#ffffff" />
	<path
   class="st1"
   d="m 252.8,279.3 c 0,-1.9 0.2,-3.8 0.7,-5.7 0.3,-1.4 0.7,-2.7 1.2,-3.7 2.9,-7.1 7.5,-11.8 9.5,-13.7 1.2,2 3.2,6.3 3.2,12.1 0,2.2 -0.3,4.6 -1,7.2 -2.7,9.4 -8.1,15.1 -10.6,17.3 -1.1,-2.4 -3,-7.6 -3,-13.5 m 10.8,-26.2 c -0.3,0.2 -7.4,5.7 -11.5,15.8 -0.5,1.2 -0.9,2.5 -1.3,4.1 -2.8,11.4 3.1,22.2 3.3,22.6 l 0.7,1.3 1.2,-0.9 c 0.4,-0.3 9,-6.6 12.8,-19.8 3.8,-13.4 -3.1,-22.5 -3.4,-22.9 l -0.8,-1.1 z"
   id="path40"
   style="fill:#ffffff" />
	<path
   class="st1"
   d="m 272.4,258.3 c 0,-2.6 0.3,-5.4 1.2,-8.2 0.5,-1.4 0.9,-2.6 1.4,-3.6 3.4,-7 8.2,-11.2 10.4,-12.9 0.8,1.7 2.1,5.1 2.1,9.6 0,2.8 -0.5,5.9 -1.8,9.4 -3.4,8.9 -9,14.4 -11.6,16.6 -0.7,-2.2 -1.7,-6.3 -1.7,-10.9 m 12.7,-27.9 c -0.3,0.2 -7.7,4.9 -12.5,14.9 -0.5,1.1 -1,2.4 -1.5,3.9 -3.4,11 0.9,22.1 1.1,22.6 l 0.6,1.5 1.4,-0.9 c 0.4,-0.3 9.2,-6.2 14,-19 4.9,-13 -1,-22.3 -1.2,-22.7 l -0.7,-1.1 z"
   id="path42"
   style="fill:#ffffff" />
	<path
   class="st1"
   d="m 293.2,239.9 c 0,-3.6 0.5,-7.8 2,-11.7 0.5,-1.4 1,-2.5 1.6,-3.4 3.9,-6.8 8.9,-10.6 11.2,-12.1 0.5,1.4 1.2,3.9 1.2,7.2 0,3.2 -0.6,7.1 -2.7,11.5 -4.1,8.6 -9.8,13.7 -12.6,15.8 -0.3,-1.7 -0.7,-4.3 -0.7,-7.3 M 308,209.5 c -0.3,0.2 -7.9,4 -13.6,13.9 -0.6,1.1 -1.2,2.3 -1.7,3.8 -4.1,10.6 -1.2,22.1 -1.1,22.6 l 0.4,1.8 1.6,-0.9 c 0.4,-0.2 9.4,-5.8 15.3,-18.1 6,-12.6 1.2,-22.1 0.9,-22.4 l -0.6,-1.2 z"
   id="path44"
   style="fill:#ffffff" />
	<path
   class="st1"
   d="m 315,224.6 c 0,-4.2 0.5,-10.9 3.2,-16.8 0.6,-1.3 1.2,-2.4 1.8,-3.3 4.4,-6.7 9.6,-10.1 12,-11.3 0.3,1.1 0.5,2.7 0.5,4.8 0,3.5 -0.8,8.3 -3.9,13.6 -4.7,8.2 -10.7,13 -13.6,15 0,-0.5 0,-1.2 0,-2 m 17.4,-34.5 c -0.3,0.1 -8.2,3.2 -14.6,13 -0.7,1 -1.3,2.2 -2,3.6 -4.7,10.2 -3.3,22 -3.3,22.5 l 0.2,2 1.7,-1 c 0.4,-0.2 9.6,-5.3 16.5,-17.2 7,-12.2 3.3,-21.8 3.1,-22.2 l -0.5,-1.2 z"
   id="path46"
   style="fill:#ffffff" />
	<path
   class="st1"
   d="m 342.6,189.2 c 0.6,-1.2 1.3,-2.2 2,-3.1 4.9,-6.6 10.3,-9.5 12.8,-10.5 0.1,0.6 0.1,1.4 0.1,2.4 0,3.6 -0.9,9.4 -5.3,15.8 -5.4,7.8 -11.5,12.3 -14.6,14.3 0.3,-4.1 1.3,-12.2 5,-18.9 m 15.5,-16.8 c -0.3,0.1 -8.4,2.4 -15.6,12.1 -0.8,1 -1.5,2.1 -2.2,3.4 -5.4,9.8 -5.4,22 -5.4,22.5 v 2.2 l 1.9,-1 c 0.4,-0.2 9.7,-4.9 17.7,-16.4 8.1,-11.7 5.4,-21.5 5.3,-21.9 l -0.4,-1.3 z"
   id="path48"
   style="fill:#ffffff" />
	<path
   class="st1"
   d="m 370.2,169.1 c 5.5,-6.5 11.1,-8.9 13.6,-9.8 0,0.1 0,0.1 0,0.2 0,3.1 -0.8,10.1 -7,17.8 -6,7.4 -12.3,11.6 -15.6,13.5 0.9,-4.9 3.4,-15.1 9,-21.7 m 14.6,-12.9 c -0.3,0.1 -8.6,1.6 -16.7,11.1 -8,9.4 -9.9,25.1 -10,25.7 l -0.3,2.3 2.1,-1 c 0.4,-0.2 9.9,-4.5 18.9,-15.5 9.1,-11.3 7.5,-21.2 7.5,-21.6 l -0.2,-1.3 z"
   id="path50"
   style="fill:#ffffff" />
	<path
   class="st1"
   d="m 134.8,290 c 0,-102.2 83.1,-185.3 185.3,-185.3 30.2,0 60.1,7.5 86.6,21.5 -3.9,4.4 -19.2,21.9 -21.6,24.6 -20.4,-9.6 -42.3,-14.4 -65,-14.4 -84.7,0 -153.6,68.9 -153.6,153.6 0,37.8 12.8,72.3 37,99.9 -1.4,3.2 -3.9,10.2 -3.9,19.6 0,7.7 1.8,17 7.2,26.8 -44.8,-35.8 -72,-90.1 -72,-146.3 m -6.1,0 c 0,65.2 35.3,128 92.1,163.8 l 2.4,1.5 1.7,-2.2 c 0.5,-0.6 0.7,-1.2 0.7,-1.8 0,-1.4 -1.2,-2.5 -1.9,-3.1 l -3.3,-3.2 c -11.7,-13.3 -14.9,-25.9 -14.9,-35.6 0,-10.7 3.8,-17.9 4.1,-18.4 l 1,-1.9 -1.4,-1.6 c -24,-26.8 -36.7,-60.5 -36.7,-97.5 0,-81.3 66.2,-147.5 147.5,-147.5 22.6,0 44.3,5 64.5,14.8 l 2.1,1 29.7,-33.8 -3.3,-1.8 C 384.7,107 352.6,98.7 320,98.7 214.6,98.6 128.7,184.4 128.7,290"
   id="path52"
   style="fill:#ffffff" />
	<path
   class="st1"
   d="m 387.3,151.8 c -21,-10.2 -43.6,-15.4 -67.1,-15.4 -84.7,0 -153.6,68.9 -153.6,153.6 0,38.5 13.2,73.6 38.3,101.5 l 2.6,2.9 11.7,-17.7 -0.6,-0.7 c -1,-0.1 -1.9,-0.3 -2.5,-0.4 0.2,-0.5 0.4,-1.1 0.7,-1.8 -0.9,-1.1 -1.8,-2.2 -2.7,-3.3 -0.9,1.5 -1.8,2.6 -2.4,3.3 -2.3,-2.4 -8.1,-9.6 -8.1,-18.3 0,-0.3 0,-0.6 0,-0.8 -10.9,-19.2 -16.5,-40.9 -16.5,-64.8 0,-73.5 59.8,-133.3 133.3,-133.3 18,0 35.4,3.5 51.8,10.4 1.8,-1.8 3.5,-3.2 5.1,-4.4 -17.9,-8 -37,-12.2 -56.9,-12.2 -76.8,0 -139.4,62.5 -139.4,139.4 0,33.3 10.4,62.6 30.8,87.2 -1.2,1.8 -2.8,4.3 -4.7,7.2 -22.3,-26.3 -34.2,-58.8 -34.2,-94.4 0,-81.3 66.2,-147.5 147.5,-147.5 21.6,0 42.4,4.6 61.8,13.6 -0.8,1.8 -1.6,3.5 -2.4,5.2 1.8,-1 3.3,-1.6 4.3,-2 0,0.1 0,0.1 0,0.2 0,2.3 -0.4,6.6 -3.1,11.8 l 0.7,0.3 8.5,-18.5 z"
   id="path54"
   style="fill:#ffffff" />
	<path
   class="st0"
   d="m 385.9,121.7 -14.7,18.6 c 1.4,0.5 2.7,0.9 4,1.4 l 14.6,-18.4 c -1.3,-0.6 -2.6,-1.1 -3.9,-1.6"
   id="path56"
   style="fill:#ffffff" />
	<path
   class="st0"
   d="m 357.2,113.1 -8.6,21.2 c 1.4,0.2 2.7,0.5 4,0.8 l 8.5,-21.1 c -1.3,-0.3 -2.6,-0.6 -3.9,-0.9"
   id="path58"
   style="fill:#ffffff" />
	<path
   class="st0"
   d="m 323,109.3 -2.1,22.5 c 1.4,0 2.7,0 4.1,0.1 l 2.1,-22.4 c -1.4,-0.2 -2.8,-0.2 -4.1,-0.2"
   id="path60"
   style="fill:#ffffff" />
	<path
   class="st0"
   d="m 289.7,111.8 4.3,22.1 c 1.3,-0.2 2.7,-0.4 4,-0.6 l -4.3,-22.1 c -1.4,0.2 -2.7,0.4 -4,0.6"
   id="path62"
   style="fill:#ffffff" />
	<path
   class="st0"
   d="m 257.3,120.5 10.1,20.3 c 1.3,-0.5 2.6,-0.9 3.9,-1.3 l -10.1,-20.3 c -1.3,0.4 -2.6,0.8 -3.9,1.3"
   id="path64"
   style="fill:#ffffff" />
	<path
   class="st0"
   d="m 226.7,135.3 15.1,17.2 c 1.2,-0.7 2.4,-1.4 3.6,-2 l -15.2,-17.3 c -1.2,0.7 -2.4,1.4 -3.5,2.1"
   id="path66"
   style="fill:#ffffff" />
	<path
   class="st0"
   d="m 198.8,156.1 19,13.2 c 1.1,-0.9 2.2,-1.8 3.2,-2.7 l -19.2,-13.3 c -0.9,1 -2,1.9 -3,2.8"
   id="path68"
   style="fill:#ffffff" />
	<path
   class="st0"
   d="m 175.1,182.2 21.9,8.5 c 0.9,-1.1 1.8,-2.2 2.7,-3.3 l -22,-8.6 c -0.9,1.2 -1.8,2.3 -2.6,3.4"
   id="path70"
   style="fill:#ffffff" />
	<path
   class="st0"
   d="m 156.8,212.6 23.5,3.3 c 0.7,-1.3 1.4,-2.5 2.1,-3.8 l -23.8,-3.3 c -0.6,1.3 -1.2,2.5 -1.8,3.8"
   id="path72"
   style="fill:#ffffff" />
	<path
   class="st0"
   d="m 144.8,246 24,-2.3 c 0.4,-1.4 0.9,-2.8 1.3,-4.2 l -24.3,2.3 c -0.3,1.4 -0.6,2.8 -1,4.2"
   id="path74"
   style="fill:#ffffff" />
	<path
   class="st0"
   d="m 139.6,280.9 23.2,-8.1 c 0.2,-1.5 0.3,-3 0.5,-4.5 l -23.5,8.2 c 0,1.5 -0.1,2.9 -0.2,4.4"
   id="path76"
   style="fill:#ffffff" />
	<path
   class="st0"
   d="m 141.4,316.2 21,-13.8 c -0.1,-1.5 -0.2,-3.1 -0.3,-4.6 l -21.3,14 c 0.2,1.4 0.4,2.9 0.6,4.4"
   id="path78"
   style="fill:#ffffff" />
	<path
   class="st0"
   d="m 150.4,350.7 17,-18.8 c -0.4,-1.6 -0.8,-3.1 -1.2,-4.7 l -17.4,19.1 c 0.5,1.5 1,3 1.6,4.4"
   id="path80"
   style="fill:#ffffff" />
	<path
   class="st0"
   d="m 166.4,383.7 12,-22.9 c -0.8,-1.5 -1.5,-3 -2.2,-4.5 l -12.3,23.3 c 0.8,1.4 1.6,2.7 2.5,4.1"
   id="path82"
   style="fill:#ffffff" />
	<path
   class="st0"
   d="m 186.9,411.2 6.4,-26.6 c -1.1,-1.4 -2.1,-2.8 -3.1,-4.3 l -6.6,27.1 c 1.1,1.3 2.2,2.5 3.3,3.8"
   id="path84"
   style="fill:#ffffff" />
	<path
   class="st0"
   d="m 382.9,172.9 c 0.6,0.4 1.1,0.7 1.6,1.1 0.5,-0.2 1,-0.5 1.5,-0.6 0.6,-0.2 1.2,-0.4 1.7,-0.6 -1.2,-0.8 -2.4,-1.7 -3.5,-2.7 -0.3,0.9 -0.8,1.8 -1.3,2.8"
   id="path86"
   style="fill:#ffffff" />
	
	
	
	
	
	
	
	
	
	
	
	
	
	
	
	
	
	
	
	
	
	
	
	
</g>
</svg>
