<?xml version="1.0" encoding="utf-8"?>
<!-- Generator: Adobe Illustrator 28.0.0, SVG Export Plug-In . SVG Version: 6.00 Build 0)  -->
<svg version="1.1" id="Ebene_1" xmlns="http://www.w3.org/2000/svg" xmlns:xlink="http://www.w3.org/1999/xlink" x="0px" y="0px"
	 viewBox="0 0 443.8 238.4" style="enable-background:new 0 0 443.8 238.4;" xml:space="preserve">
<style type="text/css">
	.st0{fill:#E2E8E2;}
	.st1{fill:#373A37;}
	.st2{display:none;}
	.st3{display:inline;fill:none;stroke:#000000;stroke-width:0.25;}
	.st4{fill:#235B70;}
	.st5{fill:#FFD6C4;}
	.st6{fill:#006C66;}
	.st7{fill:#BEB7DE;}
	.st8{fill:#A8DBDD;}
	.st9{fill:#7CD97A;}
	.st10{fill:#F47828;}
	.st11{fill:#E42F6E;}
	.st12{fill:#7BB7C2;}
	.st13{fill:#5F97FF;}
	.st14{fill:#693585;}
	.st15{fill:#FFBA00;}
	.st16{fill:#9DBBB3;}
	.st17{fill:#1B5048;}
	.st18{fill:#007575;}
	.st19{fill:#3982A6;}
	.st20{fill:none;stroke:#E4007E;stroke-width:7;stroke-miterlimit:10;}
	.st21{fill:#FFFFFF;}
	.st22{fill-rule:evenodd;clip-rule:evenodd;}
	.st23{fill-rule:evenodd;clip-rule:evenodd;fill:#E2E8E2;}
	.st24{fill-rule:evenodd;clip-rule:evenodd;fill:#235B70;}
	.st25{fill-rule:evenodd;clip-rule:evenodd;fill:#006C66;}
	.st26{fill-rule:evenodd;clip-rule:evenodd;fill:#FFFFFF;}
	.st27{fill-rule:evenodd;clip-rule:evenodd;fill:#373A37;}
	.st28{fill:none;stroke:#373A37;stroke-width:0.25;stroke-miterlimit:10;}
	.st29{fill:none;stroke:#373A37;stroke-width:0.2514;stroke-miterlimit:10;}
	.st30{fill:none;stroke:#373A37;stroke-width:0.1826;stroke-miterlimit:10;}
	.st31{fill:none;stroke:#373A37;stroke-width:0.1967;stroke-miterlimit:10;}
</style>
<g>
	<g>
		<path class="st6" d="M39.9,119.2c0,44.1,35.9,80,80,80c44.1,0,80-35.9,80-80c0-44.1-35.9-79.9-80-79.9
			C75.8,39.2,39.9,75.1,39.9,119.2z M42.2,119.2c0-42.9,34.9-77.7,77.7-77.7c42.9,0,77.7,34.9,77.7,77.7c0,42.9-34.9,77.7-77.7,77.7
			C77,196.9,42.2,162,42.2,119.2"/>
		<path class="st6" d="M142.1,167.3c-1.9,6.7-2.9,10.2,0.2,17.1c0,0.3,0.3,1.1,0,1.2c-3.3-0.7-4.2-1-7.4-1.2
			c-2.9-0.5-7.7,0.3-11,0.3c-2.5,0.1-5.1,0.2-7.7,0.5c-0.8-0.4-0.2-1.3-0.1-1.9c0.3-0.9,0.3-1.4,0.4-2.4c0.4-0.4,0.9-0.2,1.4-0.4
			c1.7-0.3,3.1-1.8,3.6-3.4c0.5-1.7-0.1-3.5-0.8-5.1c-0.2-0.5-0.8-0.8-0.5-1.3c2.1-3.9,0.6-7.9-0.1-11.7c-0.7-2.7-1.9-5.7-2.3-8.6
			c0.1-0.3-0.3-1,0.4-1l0.2,0.1c2.2,2.7,8.6,8.4,11,10.3c2.4,1.9,8.6,5.5,12.6,6.4C142.3,166.6,142.2,166.8,142.1,167.3L142.1,167.3
			z M112.3,174.2c0-0.4,0-0.5,0.3-0.6h1.5c1.3,0,2.9,0.5,4.2-0.8c0.7,0,0.8,0.8,0.9,1.5c0.2,0.9,0.1,1.5,0.1,2.3
			c-0.3,0.6-0.6,1.6-1.3,2c-1,0.5-2.1,0.4-3.1,0C113.4,177.7,112.3,176.2,112.3,174.2z M114.8,181.6c-0.2,1.8-2.4,3.3-3.5,3.6
			c-1.1,0.3-4.3,0.2-5.2-0.2c-0.9-0.3-3.2-4.7-2.9-7c0-1.9,0.5-4.9,1.3-5.1c0.8-0.2,2.8-0.1,2.8-0.1c0.8-0.1,1.5,0.1,2.2,0.2
			c0.5,0.2,0.2,0.9,0.3,1.2c0.2,1,0.3,2,0.9,3c0.8,1.6,2.4,2.6,3.9,3.2C115,180.8,114.8,181.2,114.8,181.6L114.8,181.6z
			 M102.2,184.7c-0.6,0.6-0.9,0.3-1.5,0.4c-1.7-0.5-2.7-1.2-3.2-3.2c-0.6-2.8-0.6-5.7,0-8.5l0.3-0.2c1.2-0.1,3.1-0.4,3.6-0.1
			c0.5,0.3-0.5,5.2-0.5,5.2c0,1,0.4,3.5,0.9,4.8C101.7,183.2,102.7,184.2,102.2,184.7z M122.7,126.4l-0.1,1.7
			c-0.1,1.5-0.9,3.3-2.3,4.1c-0.9-0.2-0.6-1.2-0.8-1.9c0.5-1.5,1.6-2.8,2.5-4.1c0.1-0.1,0.2-0.1,0.4-0.1L122.7,126.4z M135.2,112.9
			c-0.9,0.4-1.8,0.5-2.8,0c-0.3-0.3-1.1-0.6-0.7-1.1c0.7-1.2,1.9-2.1,2.7-3.3l0.3-0.2c1.5-1.8,3.9-3.3,6.1-4.7l1.4-0.6
			c0.3-0.3,1-0.9,1.3-0.3c0.1,2.6-1.1,5-3.2,6.6c-1.4,1-2,0.8-3.2,0.9l-0.6,1.1C136.2,112,135.7,112.5,135.2,112.9z M130.3,135.2
			c-0.4,0.2-4-1.1-3.5-0.7c-0.8-0.9,0.5-1.2-2.6-2.4l-0.8,0.1c-0.1,0.1-0.4,0.2-0.7-0.2c0-0.5,0.6-0.4,0.8-1
			c1.1-2.5,0.5-4.5,0.4-7.1l0.8-2.1c1.6-1.9,1.6-2.2,2.6-3.2c1.1-1.5,1.3-1.6,2.7-2.8c0.2-0.2,0.7-0.4,0.9-0.1
			c0.7,0.5,0.7,0.9,0.9,1.5c0.3,2.5-1.2,4.2-3,5.6c-1.3,1.1-2.5,2.9-2.2,4.6l0.1,0.1c0.6-0.5,1.3-0.8,1.6-1.4c1-2.2,3.6-3.2,5.1-5.1
			c0.6-1.1,0.2-3.1,0-4.5c0,0,1.9-0.9,1.4-0.6c0.9,0.4,0.8,1.1,1.3,1.9c0.9,2.2,0.8,4.2-0.5,6.1l-3.7,4.6
			C131.9,130.8,132.5,133.9,130.3,135.2L130.3,135.2z M146,100.1l0.3-0.3c1.2-0.5,2.2-1,3.5-1.3l1.5-0.4c0.4-0.4,1.1-0.7,1.5-0.1
			c0,2-1.5,4.4-3.7,5.3c-0.7,0.3-1.6,0.4-2.4,0.6c-0.2-0.2-0.9,0.2-1.1-0.3C145.8,102.5,146.1,101,146,100.1z M160.7,96.4
			c-0.1,1.4-2,2.6-3.6,3c-0.7,0.1-1.3,0.1-1.9,0.1c-0.2-0.1-0.3-0.2-0.3-0.4c0.1-0.7,0.2-1.1,0.3-1.7l0.4-0.3c1.4-0.3,3.1-0.6,4.5-1
			C160.3,96.2,160.6,96.2,160.7,96.4L160.7,96.4z M115.4,124.9c4.1-7.4,9.1-13.8,14.5-20.4l7.5-8.5c5.3-5.7,11.2-11.5,17.8-16.1
			c0.8-0.5,1.2-1.4,2-0.8l0.8,0.7c0.5,0.6,0.1,2.3-0.5,2.7c-0.4,0.3-0.8,0.7-1.2,1c1.3,1.3,3.1,3.7,4.6,5.2c0.7,0.7,0.5,1.4,1.6,1.9
			c0.6,0.3,0.8,0.9,0.4,1.5c-1.1,1.3-2.8,1.1-4.2,1.5c-5.1,1.1-9.3,2.6-15,5.4c-4.6,2.4-8.2,5.1-11.5,9.2c-1.3,1.6-2.7,2.7-3.7,4.6
			c-3,3.9-5.4,7.5-7.8,11.4c-0.9,1.3-1.1,1.9-2.3,3c-0.6,0.5-1.1-0.6-1.5-1c0,0-0.1-0.1-0.1-0.1c-0.1,0-0.3,0-0.4-0.1
			C116.2,125.8,115.2,125.6,115.4,124.9z M163.1,97.3c-0.2,0.2-0.4,0.4-0.6,0.3c-0.6-0.4-0.4-1-0.3-1.5c0.1-0.1,0.1-0.2,0.3-0.2
			c0.3-0.1,0.5,0.2,0.6,0.3C163.2,96.6,163.2,97,163.1,97.3z M94,181.9c-1.2,0-2-0.6-2.6-2.1c-0.6-1.8-0.7-3.4-0.4-5.3
			c0.1-0.2,0.4-0.4,0.6-0.3l1.7-0.6c0.6-0.2,1-0.3,1.6-0.2l0.3,0.3c0,1-0.3,1.7-0.3,2.6c-0.1,2.3-0.3,3,0.4,5.1
			C95,182.1,94.6,181.9,94,181.9z M89,175.5c-0.3,0.5-0.2,0.8-0.4,1.4c-0.1,0.3-0.9-0.1-1.1-0.2c-0.9-0.5-0.8-0.2-1.1-1.1
			c-0.1-0.6-0.1-1.2,0.8-1.7c0.6-0.3,1.8-0.7,2.1,0C89.5,174.3,88.9,174.9,89,175.5L89,175.5z M173,127.1c-2.1-4.9-4.5-9.1-6.2-14
			c-1.2-1.8-0.5-3.6-0.7-5.5c-0.8-2.9-2-5.2-3.2-8.1c-0.3-0.8,0.6-1.1,0.9-1.6c0.5-1.4,0.2-3.1-0.5-4.4c-0.3-0.8,0.7-1.4,0.5-2.2
			c0-1.3-1.1-2.1-2-2.8c-1.3-1.9-1.9-2.9-3.6-4.7v-0.3c0.8-0.7,1.5-2,1.5-3.1c-0.3-1.2-0.6-2.4-1.8-3.2c-1.9-1.1-3.8,0.6-5.3,1.4
			c-0.4,0.3-0.6,0.6-1.2,0.5c-0.4-0.1-0.8-0.3-1.2-0.4c-0.4,0.4-0.9,0.9-1.4,1.4l1.8,0.7c0.1,0.1,0.1,0.1,0.1,0.2c0,0,0,0.1,0,0.1
			l-4.2,3.7c0,0-7.4,7.3-7.4,7.3l-2.1,2.1l-6.6,7.6c-3.4,4-8.5,10.5-11.5,15.3c-1.6,2.2-3.2,4.6-4.6,6.9c-0.2,0.3-0.5,0.2-0.9,0.2
			c-0.3,0-0.7-0.1-1,0h0l-0.1,0c0,0,0,0,0.1,0c-1.7,0.2-2.9,0.7-4.2,1.9c-1.7,1.9-2.6,4.4-2.5,7c0,1.8,0.4,3.7,1.2,5.5
			c-0.3,1-1.1,1.9-1.8,2.7l-0.4,0.4l-0.5,0.5c-0.3,0.3-0.7,0.7-1,1l0,0l0,0c0,0.1,0,0.3,0.3,0.5l0.1,0l0.1,0
			c1.6-0.4,2.5-1.5,3.5-2.7c0,0,0.6-0.7,0.7-0.8c0.1,0,0.3,0.1,0.5,0.2c0.1,0.1,0.2,0.2,0.4,0.2v0.1l0,0.6c-3.7,3.6-6.7,5.7-10.6,8
			l-0.7,0.4L98,150c1.5,0.2,3-0.7,4.4-1.5l1.7-0.9c1.6-0.8,3-2,4.4-3.2c0,0,1.3-1,1.4-1.2c0.1,0,0.3,0.2,0.4,0.3l0.1,0.1
			c0,0,1.2,2.3,1.2,2.5c-0.3,1.1-0.4,2.2-0.4,3.2c0,2.4,0.5,4.7,1,7c0.5,2.3,1,4.6,1,6.9c0,0.1,0,0.3,0,0.5c0,0.7-0.8,1.6-1.4,1.9
			c-1.5,0.3-3.2,0.3-5.1,0.3c-2.3,0-4.7,0-6.5,0.5c-0.7,0.1-1.3,0.3-1.9,0.5c-0.7,0.2-1.3,0.4-1.9,0.5l-0.1,0l-0.1,0.1l-0.2,0.2
			c-0.2,0.1-0.5,0.3-0.5,0.6l0,0.1c0,0.2,0.1,0.4,0.2,0.5c0.1,0.1,0.3,0.2,0.5,0.2c0.6,0,1.2-0.2,1.8-0.4c0.4-0.2,0.9-0.3,1.3-0.4
			c3.8-0.6,8-0.5,10.9-0.3c1.4,0,3.7-0.1,4.5-2.1c0.3-0.8,0.4-1.6,0.4-2.3c0-0.8-0.1-1.6-0.3-2.3l-0.3-1.9c-0.2-1.2-0.4-2.4-0.7-3.5
			c-0.4-2-0.9-4.1-0.9-6.2c0-0.4,0-0.9,0.1-1.3c0-0.1,0.1-0.1,0.1-0.1c0.1,0,0.3,0.2,0.5,0.3c0.2,0.1,0.4,0.3,0.6,0.4
			c0.2,0.2,0.5,0.3,0.8,0.3c0.4,0,0.6,0.1,0.7,0.4c0.2,1.9,0.8,3.8,1.4,5.6c0.4,1.3,0.9,2.6,1.1,3.9c0.5,2.3,1,4.5,1,6.8
			c0,1.3-0.2,2.7-0.7,4c-1,1.8-3.1,1.8-5.2,1.8h-0.6l-5.1-0.3c-4.4-0.3-8.9-0.6-13.5,0.1c-0.3,0-0.7,0.1-1,0.1
			c-0.6,0.1-1.1,0.2-1.7,0c-0.2-0.2-0.4-0.5-0.4-0.8c0-0.1,0-0.2,0.1-0.3c0.8-1.8,1.2-3.5,1.2-4.9c0-1.2-0.3-2.2-0.8-3.2
			c-1.2-2.3-2.5-3.9-4.1-5c-1.8-1.8-3.5-3.6-5.2-5.5c-0.9-0.1-1.4-0.3-1.5-0.3l-0.2-0.1l-0.9,1.1c1.1,1.1,2.2,2.2,3.5,3.4
			c2,1.1,3.6,3,5,4.3c1.7,2,2.1,4.1,1.8,6.5c-0.2,2.8-2.8,4-4.5,5.9c-0.7,1.3-1.1,2.9-0.2,4.1c0.6,1.6,3.3,1.3,3.6,2.7
			c0.7,3,5.9,4.7,6.9,4.8c1,0.1,2.1,1.2,2.1,1.2c2.1,1.5,4.8,1.1,6.2,0.9c1.4-0.2,4,0.9,5.5,0.7c2.4-0.9,4.3-0.5,6.8-0.7
			c7.8,0.1,16.6-0.1,24.5,0.9c1.5-0.2,3.2,1,4.6,0.3c0.4-0.6,0.1-1.1,0-1.6c-3.8-6-4.4-12.7-2.2-19.2l1.4,0.1
			c5.1,0.6,9.8-0.1,15-3.1c2.6-1.4,4-4.8,3.9-7.2c-0.1-1.6-0.6-3.5-0.4-5.1c0.1-0.7,0.6-1.9,1.2-2.2c0.3-0.2,1.2-0.8,1.5-1.6
			c0.5-1.4-0.6-2-0.9-2.2c0.8-0.3,1.6-2,0.9-3.4c-0.5-0.5-1.1-2.6-1.1-3.3c-0.2-1-0.2-2,0.7-2.6c2.1-1.1,4-1.4,6.1-2.3
			c1.5-0.6,2.2-2.1,2.2-3.5L173,127.1L173,127.1z M172.4,132.2c-2.2,2-5.3,2.1-7.8,3.7c-1.1,1.1-0.9,2.4-0.4,3.9
			c0.9,1.8,0.6,1.6-0.7,2.1c-3,1-3,4.3-6.6,3.7c-0.2,0.1-1.1-0.4-0.6,0.2c0.4,0.5,0.6,0.2,1.3,0.3c1.3,0.1,1.8-0.5,2.7-1.1
			c1.3-1.1,1.1-1.5,2.7-2.3c0.4-0.1,1.3-0.4,1.8-0.2c0.4,0.3,0.4,0.3,0.4,0.6c-0.2,0.9-1.5,1.6-2,1.9c0.7,0.5,1.9,1.3,1.7,2
			c-0.3,0.5-0.3,0.5-0.8,0.8c-0.7,0.3-2.2,0.3-3.5-0.7c-0.2,0.1-0.4-0.4-1,0.2c1.3,1.4,3.2,1,3.4,1.3c0.3,0.3-1,1.9-1,2.3
			c-0.9,2.3,0.2,4.5-0.3,7c-0.3,1.9-0.9,2.8-2.5,4c-3.1,2.1-5.2,2.7-8.7,3.3c-9,0.6-14.7-2.5-21.2-7.3c-6.5-4.9-9-7.4-11-10.2
			c0-1.1,0.8-2,0.1-3.2c-0.6,0.2-0.5,1-0.9,1.4c-0.5,0.7-1.7,1.2-2.6,1.2c-2.7-0.9-2.8-4.1-4.5-5.9c-3.6-3.5-4.6-8.6-2.7-12.9
			c0.7-1.3,1.9-2.6,3.2-3.1c1.7-0.3,3.6-0.3,4.7,1.3c1.3,1.2,2.1,3.2,2.4,5c0.5,0.9-0.1,1.8,0.8,2.5c1.5,0.1,2.8,0.5,4.3-0.4
			c1.1,0.1,1.2,1.4,2.1,1.9l1.5,0.9c1.6,0.6,3.6,0.6,4.9-0.5c2.5-2.5,1.9-5.1,2.8-7.9c2.3-2.1,3.9-5.1,3.9-8
			c-0.1-1.8-0.8-3.6-1.9-5.4c0.2-1.1,0.8-1.9,1.1-2.8c0.3-0.2,0.7-0.2,1-0.2c2.6-0.6,5-2.9,6-5.4l0.2-0.2c3-0.2,6.7-1.3,8.5-4.4
			c0.4-1.4,1.9-0.4,2.8-0.7c1.6-0.1,3.2-1,4.4-2c0.3-0.1,0.6,0.3,0.8,0.4c0.7,2.4,2,4.6,2.7,7c0.9,1.8,1.2,3.5,0.9,5.3
			c0.4,2.8,2,5.4,3.1,8.2c1.1,3,2.9,6,4.1,9C172.7,130.2,173.2,131.2,172.4,132.2"/>
		<path class="st6" d="M159,108.8c0.4,0.5,0.7,1,0.4,1.5c-0.8,0.1-0.9-0.9-1.5-1.2c-1.1-0.5-2,0-3.1,0.3c-2.7,1.1-4.9,3.4-7.5,4.6
			c-0.3,0-0.6,0-0.8-0.3c0.4-0.4,1.1-0.5,1.7-0.9c2.7-1.8,5.3-4.5,8.6-5C157.7,107.7,158.5,108.1,159,108.8 M156.5,118.5
			c-0.4,0.6-1.1,0.1-1.7,0.2c-1.3-0.2-3.6,0.2-5,0c-0.2-0.1-0.4-0.4-0.2-0.6c0.2-0.4,0.8-0.4,1.2-0.7c1.6-1,3.3-2,5.1-2.4
			c0.3,0,0.6,0.2,0.7,0.5C156.8,116.3,156.6,117.7,156.5,118.5z M158.8,113.3c-0.2-0.6-0.2-1.7-1-1.9c-0.2,0.4,0,0.9-0.2,1.2
			c-0.2,0.3-0.6,0.6-1.1,0.5c-3.2,0.2-5.6,3.1-8.4,4.5c-0.9,0.5-2,0.8-3,1.1c-0.1,0.2-0.1,0.4,0.1,0.4c3.1,0.3,6.1,0.6,9.1,0.9
			l3.4-0.4c0.1-0.4-0.4-0.8-0.4-1.3c0.4-1.4,0.5-2.9,0.1-4.2C157.8,113.6,158.8,114.1,158.8,113.3 M160.5,128.4
			c0.1-0.2,0.2-0.3,0.4-0.3c0.2,0.1,0.3,0.2,0.3,0.5c0,0.6-0.2,1.2-0.3,1.8c-0.2,0.7-0.4,1.5-0.4,2.2c0,0.3,0,0.6,0.1,0.9
			c0.4,0.5,1.1,0.6,1.9,0.4c0,0,1.3-0.8,1.3-0.8c1.1-0.7,2.2-1.3,4.3-1.9c0.1,0,0.1,0,0.1,0c0,0,0,0.1,0,0.2c0,0.2-0.1,0.4-0.1,0.6
			c-0.1,0-1.9,0.9-1.9,0.9c-1.5,0.6-3,1.3-4.4,2.1c-0.4,0.1-0.8-0.1-1.2-0.4l-0.1-0.1c-0.5-0.6-0.7-1.4-0.7-2.2
			c0-0.6,0.1-1.3,0.3-1.9c0.1-0.6,0.3-1.2,0.3-1.9L160.5,128.4 M114.8,127.8c1.1,2.2-0.1,4.2,0,6.5c0.2,0.6,1.4,0.7,1.1,1.5
			c-0.3,0.2-0.7,0.3-1,0c-0.6-0.4-0.8-0.7-0.9-1.3c-0.1-2,1.4-4.3,0-6.2c-0.4-0.4-1-0.8-1.6-0.9c-1.3,0.2-1.9,1.6-2.3,2.6
			c-0.7,2.6-0.8,5.4,1.5,7.6c1.4,0.8,3,1.6,3.1,3.4c0.2,0.3,0.6,0.6,0.9,0.4c0.4,0,0.5-1.2,1.1-0.6l0.2,0.4
			c-0.1,0.5-0.3,1.3-1.1,1.3c-0.4,0.1-0.8-0.1-1.1-0.4c-0.8-0.8-0.2-2.1-1.6-2.7c-2.3-0.7-3.8-3.1-4-5.4c-0.1-2.2-0.1-4.6,1.8-6.5
			c0.7-0.6,1.7-0.9,2.6-0.6C113.9,127,114.5,127.4,114.8,127.8"/>
		<path class="st25" d="M86.5,144.6c3.1-1.4,6.5-1.3,7.9-1.1c-0.4,1.2-1.6,4.4-5.1,6.1c-3.5,1.7-6.5,1.3-7.6,1.1
			C82,149.4,83.4,146.1,86.5,144.6L86.5,144.6z M86,143.7c-4.2,1.9-5.5,6.9-5.5,7.1l-0.1,0.4l0.4,0.1c0.2,0.1,4,1.3,8.8-1
			c4.8-2.3,5.8-7.1,5.8-7.3l0.1-0.5l-0.5-0.1C94.8,142.6,90.1,141.8,86,143.7 M90.6,135.2c3-1.4,6.4-1.2,7.6-1.1
			c-0.4,1.2-1.7,4.2-5.2,5.9c-3.5,1.6-6.4,1.3-7.6,1.1C86,139.9,87.6,136.6,90.6,135.2z M90.2,134.3c-4.2,1.9-5.7,6.8-5.8,7
			l-0.1,0.5l0.5,0.1c0.2,0.1,4,1.2,8.8-1.1c4.8-2.3,5.8-6.9,5.9-7.1l0.1-0.5l-0.5-0.1C98.8,133.2,94.3,132.5,90.2,134.3"/>
		<path class="st25" d="M96.1,126.2c3-1.3,6.2-1.1,7.4-1c-0.9,2.5-2.8,4.5-5.2,5.6c-3.4,1.6-6.4,1.4-7.5,1.2
			C91.3,130.8,93,127.5,96.1,126.2z M95.7,125.3c-4.2,1.8-6,6.7-6.1,6.9l-0.2,0.5l0.5,0.1c0.2,0,4,1.1,8.8-1.1
			c4.8-2.2,5.9-6.6,5.9-6.8l0.1-0.5l-0.5-0.1C104,124.3,99.8,123.5,95.7,125.3 M101.5,117.3c3-1.3,6-1.1,7.2-0.9
			c-1,2.4-2.8,4.4-5.2,5.4c-3.4,1.5-6.3,1.4-7.5,1.2C96.5,121.7,98.4,118.6,101.5,117.3L101.5,117.3z M101.1,116.4
			c-4.2,1.8-6.3,6.6-6.4,6.8l-0.2,0.5l0.6,0.1c0.2,0,4,1,8.8-1.2c4.8-2.2,5.9-6.4,6-6.6l0.1-0.5l-0.5-0.1
			C109.3,115.4,105.2,114.6,101.1,116.4 M108.9,108.3c3-1.3,5.8-1,7-0.9c-0.4,1.1-1.8,3.7-5.3,5.2c-3.4,1.5-6.3,1.4-7.5,1.3
			C103.9,112.7,105.9,109.6,108.9,108.3z M108.6,107.4c-4.2,1.7-6.6,6.5-6.7,6.7l-0.3,0.6l0.6,0.1c0.2,0,4,0.8,8.8-1.3
			c4.9-2.1,6-6.2,6-6.4l0.1-0.5l-0.5-0.1C116.5,106.5,112.7,105.7,108.6,107.4"/>
		<path class="st25" d="M117.2,99.7c2.1-0.9,4.5-1.2,6.8-0.8c-0.5,1.1-1.9,3.6-5.3,5c-3.3,1.4-6.2,1.4-7.5,1.4
			C112,104,114.2,100.9,117.2,99.7z M116.8,98.8c-4.2,1.7-6.8,6.5-6.9,6.6l-0.3,0.6l0.7,0.1c0.2,0,4,0.7,8.8-1.3
			c4.9-2.1,6-6,6.1-6.2l0.1-0.5l-0.5-0.1C124.6,98,121,97.1,116.8,98.8"/>
		<path class="st25" d="M126,91.6c3-1.2,5.5-0.9,6.5-0.8c-0.5,1-1.9,3.4-5.4,4.8c-3.3,1.4-6.1,1.5-7.5,1.4
			C120.6,95.7,123,92.7,126,91.6z M125.6,90.6c-4.2,1.7-7.1,6.4-7.2,6.6l-0.4,0.6l0.7,0.1c0.2,0,4,0.6,8.8-1.4c4.9-2,6.1-5.8,6.1-6
			l0.2-0.5l-0.5-0.1C133.2,89.9,129.8,89,125.6,90.6"/>
		<path class="st25" d="M135.1,84c2.9-1.1,5.3-0.9,6.3-0.7c-0.5,1-2,3.3-5.4,4.6c-3.3,1.3-6.1,1.5-7.4,1.4
			C129.7,88.1,132.1,85.2,135.1,84z M134.8,83.1c-4.2,1.6-7.4,6.3-7.5,6.5l-0.4,0.7l0.8,0.1c0.2,0,4,0.5,8.8-1.5
			c4.9-2,6.2-5.6,6.2-5.8l0.2-0.5l-0.5-0.2C142.2,82.5,139,81.5,134.8,83.1"/>
		<path class="st25" d="M144.4,77.3c2.9-1.1,5.1-0.8,6.1-0.7c-0.5,1-2,3.1-5.5,4.4c-2.3,0.9-4.8,1.4-7.4,1.5
			C138.8,81.2,141.5,78.4,144.4,77.3L144.4,77.3z M144.1,76.4c-4.2,1.6-7.7,6.2-7.8,6.4l-0.5,0.7l0.9,0.1c0.2,0,4,0.4,8.8-1.5
			c4.9-1.9,6.2-5.4,6.3-5.5l0.2-0.5l-0.5-0.2C151.3,75.8,148.4,74.8,144.1,76.4 M77,143.3c0-0.1,0-0.3,0-0.5
			c0.2-3.4,2.1-6.4,2.8-7.5c0.9,0.9,2.9,3.4,2.9,7c0,0.1,0,0.3,0,0.4c-0.2,3.9-2,6.3-2.7,7.2C79.2,149.1,77,146.5,77,143.3z
			 M79.4,134.3c-0.1,0.2-3,3.9-3.3,8.5c-0.3,4.6,3.5,8.2,3.6,8.3l0.3,0.3l0.3-0.3c0.1-0.1,3.1-2.9,3.4-8.2c0.2-5.3-3.5-8.5-3.6-8.6
			l-0.4-0.3L79.4,134.3"/>
		<path class="st25" d="M82.4,133.2c0-0.8,0.1-1.6,0.3-2.4c0.7-2.7,2.2-4.8,2.9-5.6c0.7,0.8,2.3,3,2.3,6.2c0,0.4,0,0.8-0.1,1.1
			c-0.5,3.8-2.3,6.1-3.1,6.9C84,138.5,82.4,136.1,82.4,133.2z M85.2,124.1c-1.6,1.9-2.8,4.1-3.5,6.5c-0.1,0.5-0.2,1.1-0.3,1.6
			c-0.5,4.5,2.7,8.2,2.8,8.3l0.3,0.4l0.4-0.3c0.1-0.1,3.2-2.8,3.8-7.9c0.6-5.2-2.7-8.4-2.8-8.6l-0.4-0.3L85.2,124.1"/>
		<path class="st25" d="M88.5,123.9c0-0.5,0-0.9,0.1-1.4c0.1-0.5,0.2-1,0.4-1.4c0.7-2,1.8-3.8,3.2-5.3c1.5,2.1,2,4.7,1.5,7.2
			c-0.7,3.6-2.7,5.8-3.5,6.6C89.6,128.6,88.5,126.4,88.5,123.9z M91.9,114.6c-0.1,0.1-2.6,2.4-3.8,6.1c-0.2,0.5-0.3,1-0.4,1.6
			c-0.8,4.3,1.9,8.2,2,8.3l0.3,0.4l0.4-0.3c0.1-0.1,3.3-2.6,4.3-7.6c1-5.1-1.9-8.4-2.1-8.5l-0.3-0.4L91.9,114.6"/>
		<path class="st25" d="M95.2,115.3c0-0.7,0.1-1.4,0.2-2.1c0.1-0.5,0.3-0.9,0.4-1.4c0.8-1.9,2-3.6,3.5-5c0.8,1.4,1.2,2.9,1.2,4.4
			c0,0.8-0.1,1.7-0.4,2.6c-0.7,2.4-2,4.6-3.9,6.4C95.9,119.3,95.2,117.4,95.2,115.3z M99.1,105.6c-0.1,0.1-2.7,2.1-4.2,5.8
			c-0.2,0.5-0.4,1-0.5,1.5c-1,4.2,1.1,8.1,1.2,8.3l0.3,0.5l0.5-0.3c0.1-0.1,3.3-2.4,4.7-7.3c1.4-4.9-1.1-8.3-1.3-8.4l-0.3-0.4
			L99.1,105.6"/>
		<path class="st25" d="M102.4,107.6c0-1.5,0.3-3,0.9-4.3c0.9-1.8,2.2-3.5,3.8-4.7c0.3,0.6,0.8,1.9,0.8,3.5c0,1-0.2,2.2-0.7,3.4
			c-0.9,2.4-2.3,4.4-4.2,6.1C102.6,110.2,102.4,108.9,102.4,107.6z M107,97.3c-0.1,0.1-2.8,1.8-4.6,5.5c-0.2,0.5-0.4,1-0.6,1.4
			c-1.3,4.1,0.3,8.1,0.4,8.3l0.2,0.6l0.5-0.3c0.1-0.1,3.4-2.3,5.2-7c1.8-4.8-0.4-8.2-0.5-8.3l-0.3-0.4L107,97.3"/>
		<path class="st25" d="M110,100.8c0-1.3,0.2-2.9,0.7-4.3c0.2-0.5,0.4-0.9,0.6-1.3c1-1.8,2.4-3.3,4.1-4.4c0.2,0.5,0.4,1.4,0.4,2.6
			c0,1.5-0.4,2.9-1,4.2c-1.1,2.3-2.7,4.3-4.6,5.8C110.1,102.6,110,101.7,110,100.8z M115.4,89.6c-0.1,0.1-2.9,1.5-5,5.1
			c-0.2,0.4-0.5,0.9-0.6,1.4c-1.5,3.9-0.4,8.1-0.4,8.3l0.2,0.6l0.6-0.3c0.1-0.1,3.4-2.1,5.6-6.6c2.2-4.6,0.4-8.1,0.3-8.2l-0.2-0.4
			L115.4,89.6"/>
		<path class="st25" d="M118,95.2c0-1.6,0.2-4,1.2-6.2c0.2-0.5,0.4-0.9,0.7-1.2c1.6-2.5,3.5-3.7,4.4-4.2c0.1,0.4,0.2,1,0.2,1.8
			c0,1.3-0.3,3.1-1.4,5c-1.3,2.2-3,4.1-5,5.5C118,95.7,118,95.5,118,95.2L118,95.2z M124.4,82.5c-0.1,0.1-3,1.2-5.4,4.8
			c-0.2,0.4-0.5,0.8-0.7,1.3c-1.7,3.8-1.2,8.1-1.2,8.3l0.1,0.7l0.6-0.3c0.1-0.1,3.5-2,6-6.3c2.6-4.5,1.2-8,1.1-8.1l-0.2-0.5
			L124.4,82.5"/>
		<path class="st25" d="M128.1,82.2c0.2-0.4,0.5-0.8,0.7-1.1c1.8-2.4,3.8-3.5,4.7-3.9c0,0.2,0.1,0.5,0.1,0.9c0,1.3-0.3,3.5-1.9,5.8
			c-1.4,2.1-3.2,3.9-5.4,5.2C126.4,87.6,126.8,84.6,128.1,82.2z M133.8,76c-0.1,0-3.1,0.9-5.7,4.4c-0.3,0.4-0.6,0.8-0.8,1.3
			c-2,3.6-2,8.1-2,8.3v0.8l0.7-0.4c0.2-0.1,3.6-1.8,6.5-6c3-4.3,2-7.9,1.9-8l-0.1-0.5L133.8,76"/>
		<path class="st25" d="M138.3,74.8c2-2.4,4.1-3.3,5-3.6c0,0,0,0,0,0.1c0,1.1-0.3,3.7-2.6,6.5c-1.6,2-3.5,3.7-5.7,5
			C135.3,81,136.2,77.2,138.3,74.8z M143.6,70.1c-0.1,0-3.2,0.6-6.1,4.1c-2.9,3.5-3.6,9.2-3.7,9.4l-0.1,0.9l0.8-0.4
			c0.2-0.1,3.6-1.6,6.9-5.7c3.3-4.1,2.8-7.8,2.7-7.9l-0.1-0.5L143.6,70.1"/>
		<path class="st25" d="M51.9,119.2c0-37.5,30.5-68,68-68c11.1,0,22,2.7,31.8,7.9c-1.4,1.6-7.1,8.1-7.9,9
			c-7.5-3.5-15.6-5.3-23.9-5.3c-31.1,0-56.4,25.3-56.4,56.4c0,13.9,4.7,26.5,13.6,36.7c-0.9,2.3-1.4,4.7-1.4,7.2
			c0,2.8,0.7,6.2,2.6,9.8C61.8,159.8,51.9,139.8,51.9,119.2z M49.6,119.2c0,23.9,13,47,33.8,60.1l0.9,0.5l0.6-0.8
			c0.2-0.2,0.2-0.4,0.2-0.7c0-0.5-0.4-0.9-0.7-1.1l-1.2-1.2c-4.3-4.9-5.4-9.5-5.4-13.1c0-3.9,1.4-6.6,1.5-6.8l0.4-0.7l-0.5-0.6
			c-8.8-9.8-13.5-22.2-13.5-35.8C65.7,89.3,90,65,119.9,65c8.3,0,16.3,1.8,23.7,5.4l0.8,0.4l10.9-12.4l-1.2-0.7
			c-10.4-5.8-22.2-8.8-34.1-8.8C81.1,48.9,49.6,80.4,49.6,119.2"/>
		<path class="st25" d="M144.5,68.5c-7.7-3.7-16.1-5.7-24.7-5.7c-31.1,0-56.4,25.3-56.4,56.4c0,14.1,4.9,27,14.1,37.3l1,1.1l4.3-6.5
			l-0.2-0.3c-0.3,0-0.6-0.1-0.9-0.2c0.1-0.2,0.1-0.4,0.3-0.7c-0.3-0.4-0.7-0.8-1-1.2c-0.3,0.4-0.6,0.8-0.9,1.2c-0.8-0.9-3-3.5-3-6.7
			l0-0.3c-4-7.1-6-15-6-23.8c0-27,21.9-48.9,48.9-48.9c6.6,0,13,1.3,19,3.8c0.6-0.7,1.3-1.2,1.9-1.6c-6.6-3-13.7-4.5-20.9-4.5
			C91.7,68,68.7,91,68.7,119.2c0,12.2,3.8,23,11.3,32l-1.7,2.6c-8.2-9.6-12.5-21.6-12.5-34.6C65.7,89.3,90,65,119.9,65
			c7.9,0,15.5,1.7,22.7,5c-0.3,0.6-0.6,1.3-0.9,1.9c0.6-0.4,1.2-0.6,1.6-0.7c0,0,0,0,0,0.1c0,0.8-0.2,2.4-1.1,4.3l0.3,0.1l3.1-6.8
			L144.5,68.5"/>
		<path class="st6" d="M144,57.4l-5.4,6.8c0.5,0.2,1,0.3,1.5,0.5l5.3-6.8C145,57.8,144.5,57.6,144,57.4"/>
		<path class="st6" d="M133.5,54.3l-3.1,7.8c0.5,0.1,1,0.2,1.5,0.3l3.1-7.8C134.5,54.5,134,54.4,133.5,54.3"/>
		<path class="st6" d="M120.9,52.9l-0.8,8.3c0.5,0,1,0,1.5,0l0.8-8.2C121.9,52.9,121.4,52.9,120.9,52.9"/>
		<path class="st6" d="M108.7,53.8l1.6,8.1c0.5-0.1,1-0.2,1.5-0.2l-1.6-8.1C109.7,53.6,109.2,53.7,108.7,53.8"/>
		<path class="st6" d="M96.8,57l3.7,7.4c0.5-0.2,0.9-0.3,1.4-0.5l-3.7-7.5C97.8,56.6,97.3,56.8,96.8,57"/>
		<path class="st6" d="M85.6,62.4l5.5,6.3c0.4-0.2,0.9-0.5,1.3-0.7l-5.6-6.4C86.4,61.9,86,62.2,85.6,62.4"/>
		<path class="st6" d="M75.4,70.1l7,4.9c0.4-0.3,0.8-0.7,1.2-1l-7-4.9C76.1,69.4,75.7,69.7,75.4,70.1"/>
		<path class="st6" d="M66.7,79.6l8,3.1c0.3-0.4,0.7-0.8,1-1.2l-8.1-3.2C67.3,78.8,67,79.2,66.7,79.6"/>
		<path class="st6" d="M59.9,90.8l8.6,1.2c0.3-0.5,0.5-0.9,0.8-1.4l-8.7-1.2C60.4,89.9,60.2,90.3,59.9,90.8"/>
		<path class="st6" d="M55.5,103l8.8-0.8c0.2-0.5,0.3-1,0.5-1.5l-8.9,0.8C55.8,102,55.7,102.5,55.5,103"/>
		<path class="st6" d="M53.6,115.9l8.5-3c0.1-0.5,0.1-1.1,0.2-1.6l-8.6,3C53.7,114.8,53.7,115.3,53.6,115.9"/>
		<path class="st6" d="M54.3,128.8l7.7-5.1c0-0.6-0.1-1.1-0.1-1.7l-7.8,5.1C54.1,127.7,54.2,128.3,54.3,128.8"/>
		<path class="st6" d="M57.6,141.5l6.3-6.9c-0.2-0.6-0.3-1.2-0.4-1.7l-6.4,7C57.2,140.4,57.4,140.9,57.6,141.5"/>
		<path class="st6" d="M63.4,153.6l4.4-8.4c-0.3-0.6-0.5-1.1-0.8-1.7l-4.5,8.6C62.8,152.6,63.1,153.1,63.4,153.6"/>
		<path class="st6" d="M71,163.7l2.4-9.7c-0.4-0.5-0.8-1-1.2-1.6l-2.4,9.9C70.2,162.8,70.6,163.2,71,163.7"/>
		<path class="st6" d="M142.9,76.2l0.6,0.4c0.2-0.1,0.4-0.2,0.5-0.2l0.6-0.2c-0.5-0.3-0.9-0.6-1.3-1
			C143.3,75.5,143.1,75.8,142.9,76.2"/>
	</g>
	<g>
		<path class="st6" d="M221.1,70.3V39.2h9.1l7.1,22.1l7.2-22.1h9.1v31.1h-6.3V46.5l-7.5,23.8h-4.9l-7.4-23.6v23.6H221.1z"/>
		<path class="st6" d="M258.2,70.3l11.1-31.1h6.6l11.1,31.1h-6.2l-2.5-7.2h-11.2l-2.6,7.2H258.2z M268.5,57.6h8.2l-4.1-12.3
			L268.5,57.6z"/>
		<path class="st6" d="M290.4,70.3l10.3-15.8l-10-15.3h7.8l6.2,10.1l6.1-10.1h6.7l-9.6,14.5l10.9,16.6H311l-7-11.2l-6.9,11.2H290.4z
			"/>
		<path class="st6" d="M221.1,113.2V82.2h11.4c2.3,0,4.3,0.4,6.1,1.2c1.8,0.8,3.2,1.9,4.2,3.4c1,1.5,1.6,3.4,1.6,5.6
			c0,2.1-0.5,3.8-1.4,5.3c-0.9,1.5-2.2,2.6-3.9,3.4c-1.7,0.8-3.6,1.2-5.8,1.2h-5.9v11.1H221.1z M227.4,97.3h5.8
			c1.6,0,2.9-0.5,3.9-1.5c1-1,1.5-2.3,1.5-3.7c0-1.5-0.5-2.8-1.6-3.7c-1.1-0.9-2.3-1.4-3.9-1.4h-5.7V97.3z"/>
		<path class="st6" d="M249.2,113.2V82.2h6.3v25.7H269v5.3H249.2z"/>
		<path class="st6" d="M272.3,113.2l11.1-31.1h6.6l11.1,31.1h-6.2l-2.5-7.2h-11.2l-2.6,7.2H272.3z M282.6,100.6h8.2l-4.1-12.3
			L282.6,100.6z"/>
		<path class="st6" d="M305.8,113.2V82.2h6.2l14.2,20.6V82.2h6.3v31.1h-5.6l-14.8-21.4v21.4H305.8z"/>
		<path class="st6" d="M352,113.7c-2.9,0-5.4-0.7-7.5-2c-2.1-1.3-3.7-3.2-4.9-5.7c-1.1-2.4-1.7-5.3-1.7-8.5c0-3.3,0.6-6.1,1.7-8.4
			c1.1-2.3,2.7-4.1,4.9-5.4c2.1-1.3,4.6-1.9,7.5-1.9c2.3,0,4.4,0.5,6.2,1.4c1.8,0.9,3.3,2.2,4.4,3.8c1.1,1.6,1.8,3.4,2,5.5h-6.6
			c-0.2-1.1-0.6-2-1.1-2.9c-0.5-0.8-1.2-1.5-2.1-2c-0.9-0.5-1.9-0.7-3.1-0.7c-1.4,0-2.7,0.4-3.7,1.1c-1,0.7-1.8,1.8-2.4,3.4
			c-0.6,1.6-0.8,3.6-0.8,6.2c0,3.9,0.6,6.7,1.9,8.4c1.2,1.7,2.9,2.6,5.1,2.6c1.2,0,2.2-0.3,3.1-0.8c0.9-0.6,1.6-1.3,2.1-2.2
			c0.5-0.9,0.9-1.9,1.1-3h6.6c-0.2,1.5-0.5,2.9-1.1,4.2c-0.5,1.3-1.3,2.5-2.3,3.6c-1,1-2.2,1.9-3.8,2.5
			C356.1,113.4,354.2,113.7,352,113.7z"/>
		<path class="st6" d="M370.2,113.2V82.2h6.5v14.2l11.3-14.2h7.2l-9.4,12l10.6,19h-6.8l-8.2-14.5l-4.6,5.5v8.9H370.2z"/>
		<g>
			<path class="st10" d="M221.1,156.2v-31.1c0.2,0,0.6,0,1.3,0s1.6,0,2.6,0c1,0,2,0,2.9,0c1,0,1.8,0,2.5,0c3.8,0.1,6.8,0.8,9.2,2
				c2.4,1.3,4.1,3,5.2,5.3c1.1,2.3,1.7,4.9,1.7,8c0,3.2-0.6,6-1.8,8.3c-1.2,2.3-3,4.1-5.4,5.4c-2.4,1.3-5.5,1.9-9.2,1.9H221.1z
				 M227.4,151.1h2.9c1.8,0,3.4-0.3,4.8-1c1.5-0.7,2.6-1.8,3.5-3.4c0.9-1.6,1.3-3.6,1.3-6.2c0-2.4-0.4-4.4-1.2-5.9
				c-0.8-1.5-1.9-2.6-3.3-3.3c-1.4-0.7-3.1-1.1-5.1-1.1h-3V151.1z"/>
			<path class="st10" d="M252.1,156.2v-31.1h6.2v31.1H252.1z"/>
			<path class="st10" d="M277.8,156.6c-2.8,0-5.3-0.6-7.4-1.9c-2.1-1.3-3.7-3.1-4.9-5.5c-1.1-2.4-1.7-5.2-1.7-8.4
				c0-3.3,0.6-6.1,1.8-8.5c1.2-2.4,2.9-4.2,5-5.6c2.1-1.3,4.7-2,7.5-2c1.8,0,3.5,0.3,5,0.9c1.5,0.6,2.8,1.4,4,2.4
				c1.1,1,2,2.2,2.6,3.4c0.6,1.3,1,2.6,1,4h-6.6c-0.2-1-0.6-1.9-1.1-2.7c-0.6-0.8-1.3-1.5-2.1-2c-0.9-0.5-1.9-0.7-3-0.7
				c-1.4,0-2.6,0.4-3.7,1.1c-1.1,0.7-2,1.8-2.6,3.4c-0.6,1.5-1,3.6-1,6.1c0,2,0.2,3.8,0.6,5.1c0.4,1.4,1,2.4,1.7,3.2
				c0.7,0.8,1.5,1.4,2.4,1.7c0.9,0.3,1.9,0.5,2.8,0.5c0.9,0,1.7-0.2,2.5-0.5c0.7-0.3,1.3-0.7,1.9-1.2c0.5-0.5,0.9-1,1.2-1.6
				c0.3-0.6,0.5-1.1,0.6-1.7l0.2-1.9h-6.4v-4.3l13,0.1v16.2h-4.3v-4.1c-0.5,0.7-1.2,1.4-2,2.1c-0.8,0.7-1.7,1.3-2.9,1.7
				C280.9,156.4,279.5,156.6,277.8,156.6z"/>
			<path class="st10" d="M297.9,156.2v-31.1h6.2v31.1H297.9z"/>
			<path class="st10" d="M317.8,156.2v-25.5h-9.4v-5.6h24.8v5.6h-9.2v25.5H317.8z"/>
			<path class="st10" d="M331.5,156.2l11.1-31.1h6.6l11.1,31.1h-6.2l-2.5-7.2h-11.2l-2.6,7.2H331.5z M341.8,143.5h8.2l-4.1-12.3
				L341.8,143.5z"/>
			<path class="st10" d="M365,156.2v-31.1h6.3v25.7h13.5v5.3H365z"/>
		</g>
		<path class="st6" d="M221.1,199.1v-31.1h6.3v25.7h13.5v5.3H221.1z"/>
		<path class="st6" d="M245.9,199.1v-31.1h6.2v31.1H245.9z"/>
		<path class="st6" d="M259.1,199.1v-31.1h11.3c4.1,0,7.1,0.7,9.1,2.1c2,1.4,3,3.4,3,6c0,1.5-0.4,2.9-1.2,4s-2.2,2.1-4.2,3
			c1.3,0.3,2.4,0.8,3.2,1.3c0.8,0.6,1.4,1.2,1.8,1.9c0.4,0.7,0.7,1.4,0.9,2.1c0.2,0.7,0.2,1.5,0.2,2.2c0,2.9-1,5-2.9,6.4
			c-1.9,1.4-5,2.1-9.3,2.1H259.1z M265.4,180.9h6c0.6,0,1.3-0.1,1.9-0.2c0.6-0.2,1.1-0.4,1.6-0.7c0.5-0.3,0.8-0.7,1.1-1.2
			c0.3-0.5,0.4-1.1,0.4-1.8c0-1.3-0.5-2.4-1.5-3.1c-1-0.7-2.3-1-3.9-1h-5.6V180.9z M265.4,194.3h5.6c1.9,0,3.3-0.4,4.3-1.1
			c1-0.8,1.5-1.8,1.5-3c0-0.9-0.2-1.7-0.7-2.3c-0.5-0.6-1.1-1.1-1.9-1.4c-0.8-0.3-1.7-0.5-2.8-0.5h-6V194.3z"/>
		<path class="st6" d="M289.1,199.1v-31.1h13.1c2.5,0,4.5,0.4,6.1,1.2s2.7,1.9,3.5,3.3c0.7,1.4,1.1,3,1.1,4.8c0,1.6-0.3,3-0.8,4.1
			c-0.5,1.1-1.2,2.1-2,2.8c-0.8,0.7-1.7,1.4-2.7,1.8l5.8,13h-6.5l-5-12h-6.3v12H289.1z M295.4,182.3h5.7c1.7,0,3-0.5,4-1.4
			c1-0.9,1.5-2.1,1.5-3.5c0-1.4-0.5-2.6-1.4-3.4c-0.9-0.8-2.1-1.2-3.6-1.2h-6.2V182.3z"/>
		<path class="st6" d="M317,199.1l11.1-31.1h6.6l11.1,31.1h-6.2l-2.5-7.2h-11.2l-2.6,7.2H317z M327.3,186.5h8.2l-4.1-12.3
			L327.3,186.5z"/>
		<path class="st6" d="M350.5,199.1v-31.1h13.1c2.5,0,4.5,0.4,6.1,1.2s2.7,1.9,3.5,3.3c0.7,1.4,1.1,3,1.1,4.8c0,1.6-0.3,3-0.8,4.1
			c-0.5,1.1-1.2,2.1-2,2.8c-0.8,0.7-1.7,1.4-2.7,1.8l5.8,13h-6.5l-5-12h-6.3v12H350.5z M356.8,182.3h5.7c1.7,0,3-0.5,4-1.4
			c1-0.9,1.5-2.1,1.5-3.5c0-1.4-0.5-2.6-1.4-3.4c-0.9-0.8-2.1-1.2-3.6-1.2h-6.2V182.3z"/>
		<path class="st6" d="M386.8,199.1v-13.1l-10.8-18h6.8l7.2,12.6l7.1-12.6h6.9l-10.8,18v13.1H386.8z"/>
	</g>
</g>
</svg>
